<svg width="50" height="42" viewBox="0 0 50 42" fill="none" xmlns="http://www.w3.org/2000/svg">
<path d="M30.9877 39.3904C31.246 39.3809 31.5135 39.3571 31.7347 39.214C32.2211 38.8994 32.7083 38.5516 33.1836 38.2209L36.2948 36.0377L46.055 29.2748L48.053 27.8795C48.3327 27.6836 49.0671 27.1463 49.3515 27.041C49.3855 27.2086 49.3832 27.284 49.3871 27.4574C49.3932 27.6805 49.4066 27.8764 49.3767 28.0984L49.3897 28.2113L37.56 36.4648L33.7293 39.1505C33.0699 39.6139 32.3998 40.0996 31.7251 40.5389C31.5173 40.674 31.2402 40.7038 30.9946 40.7241C30.9904 41.0861 31.0864 41.687 30.7956 41.9124C30.4025 41.7681 29.693 41.364 29.2947 41.1508L26.8623 39.8665C23.7789 38.2584 20.5745 36.6129 17.5264 34.9512L17.5615 33.7974L17.5876 33.7507L17.5617 33.7431C17.533 33.4312 17.5503 32.9524 17.5525 32.6275L17.5254 32.5736L17.5473 32.5567L26.3169 37.1215L28.9472 38.5102C29.4657 38.7846 30.4351 39.3835 30.9877 39.3904Z" fill="#48754E"/>
<path d="M17.5614 33.7969C20.4783 35.3697 23.5194 36.9288 26.46 38.4691L28.8897 39.7439C29.5403 40.0856 30.2643 40.5204 30.9555 40.7129L30.9945 40.7236C30.9903 41.0856 31.0864 41.6864 30.7955 41.9118C30.4025 41.7676 29.693 41.3634 29.2946 41.1503L26.8622 39.866C23.7789 38.2579 20.5744 36.6123 17.5264 34.9507L17.5614 33.7969Z" fill="#8BAB7A"/>
<path d="M17.5521 32.627L26.4803 37.2988L28.7011 38.4741C29.3608 38.8246 30.2896 39.3761 30.9869 39.5181L30.9842 40.6114C30.471 40.5662 28.4374 39.4147 27.832 39.0952L20.3225 35.1596C19.6484 34.8148 18.2087 33.9932 17.5872 33.7501L17.5612 33.7425C17.5326 33.4306 17.5499 32.9519 17.5521 32.627Z" fill="#8BAB7A"/>
<path d="M30.9847 40.6122C31.711 40.5881 32.0091 40.241 32.5686 39.8453L34.2647 38.6574L40.338 34.4058L46.6317 30.0117C47.3519 29.5062 48.7434 28.6218 49.3768 28.0986L49.3898 28.2115L37.56 36.465L33.7293 39.1507C33.0699 39.6142 32.3998 40.0998 31.7252 40.5391C31.5174 40.6742 31.2403 40.7041 30.9946 40.7244L30.9556 40.7136C30.2644 40.5211 29.5404 40.0864 28.8898 39.7447L26.4601 38.4699C23.5195 36.9296 20.4784 35.3705 17.5615 33.7977L17.5877 33.751C18.2092 33.994 19.6488 34.8156 20.323 35.1604L27.8324 39.096C28.4379 39.4156 30.4715 40.5671 30.9847 40.6122Z" fill="#426348"/>
<path d="M30.9877 39.3904C31.246 39.3809 31.5135 39.3571 31.7347 39.214C32.2211 38.8994 32.7083 38.5516 33.1836 38.2209L36.2948 36.0377L46.055 29.2748L48.053 27.8795C48.3327 27.6836 49.0671 27.1463 49.3515 27.041C49.2125 27.2503 46.4736 29.093 46.0446 29.39L39.5408 33.9046L34.6642 37.3029C33.7717 37.9278 32.8793 38.5531 31.9831 39.1731C31.6608 39.3958 31.383 39.514 30.9873 39.5186C30.29 39.3767 29.3612 38.8252 28.7015 38.4747L26.4807 37.2994L17.5525 32.6275L17.5254 32.5736L17.5473 32.5567L26.3169 37.1215L28.9472 38.5102C29.4657 38.7846 30.4351 39.3835 30.9877 39.3904Z" fill="#426348"/>
<path d="M49.3891 28.2109C49.396 28.5328 49.4606 29.2909 49.2253 29.4861C48.7033 29.9189 47.9907 30.3804 47.4312 30.7673L43.5588 33.4645L35.5506 39.0924L33.096 40.8194C32.4298 41.289 31.6345 42.0766 30.7949 41.912C31.0858 41.6866 30.9897 41.0858 30.9939 40.7238C31.2396 40.7035 31.5167 40.6736 31.7245 40.5385C32.3992 40.0992 33.0693 39.6136 33.7286 39.1501L37.5594 36.4644L49.3891 28.2109Z" fill="#48754E"/>
<path d="M49.3757 22.6904C49.3765 23.0016 49.4167 24.832 49.3237 24.9617L49.3344 25.0057C49.3853 25.0918 49.4102 26.8862 49.3516 27.0409C49.0673 27.1461 48.3329 27.6834 48.0531 27.8793L46.0551 29.2746L36.295 36.0375L33.1837 38.2208C32.7084 38.5514 32.2212 38.8993 31.7348 39.2139C31.5136 39.357 31.2461 39.3807 30.9878 39.3903L30.9894 38.4592C30.868 38.4358 30.7617 38.4048 30.6434 38.3719L30.6667 38.3034C30.1934 38.1404 29.0292 37.5002 28.5344 37.2419L24.7125 35.2488L19.9846 32.7797C19.2935 32.4211 18.1661 31.8938 17.54 31.5053C17.5386 31.3385 17.5385 31.172 17.5395 31.0055C17.5417 30.8345 17.5142 30.6845 17.6134 30.5873L17.6375 30.5436L17.6033 30.5314L17.5278 30.4621C17.5315 30.2409 17.505 29.6141 17.611 29.4771L17.6402 29.4265L17.6051 29.4189L17.5502 29.3699L17.554 28.2915C17.8714 28.5012 21.369 30.3041 21.5741 30.324C21.8284 30.4005 22.8671 30.986 23.1675 31.1429L28.5221 33.963C29.3576 34.3965 30.0678 34.9802 31.0242 35.0647C31.268 35.0433 31.3361 35.0207 31.5626 34.9293C31.9403 34.79 32.8416 34.0345 33.2901 33.7586C33.6785 33.4605 34.0754 33.1895 34.4776 32.9109C37.3485 31.0235 40.1479 28.9183 43.012 27.0079C44.2017 26.2142 45.4968 25.344 46.6402 24.4933C46.5641 24.0995 46.964 24.0777 47.1764 23.7245C47.385 23.7313 47.4167 23.7199 47.6169 23.656C47.7076 23.6915 47.6792 23.6736 47.7477 23.7379L48.7351 23.0616L48.7626 23.0861C48.8641 23.0601 48.9421 23.0084 49.0336 22.9572C49.1962 22.8546 49.2376 22.824 49.3757 22.6904Z" fill="#48754E"/>
<path d="M30.9801 37.3236C31.1144 37.3102 31.5399 37.252 31.6348 37.19C32.9593 36.3259 34.4645 35.1974 35.7384 34.3214L46.2532 27.0614C46.6512 26.787 49.0909 25.0492 49.3232 24.9619L49.3339 25.0059C49.3848 25.092 49.4097 26.8865 49.3511 27.0411C49.0668 27.1463 48.3324 27.6836 48.0526 27.8795L46.0546 29.2748L36.2945 36.0377L33.1832 38.221C32.7079 38.5516 32.2207 38.8995 31.7343 39.2141C31.5131 39.3572 31.2456 39.3809 30.9873 39.3905L30.9889 38.4594C30.8675 38.4361 30.7612 38.4051 30.6429 38.3721L30.6663 38.3036C30.1929 38.1406 29.0287 37.5004 28.5339 37.2421L24.712 35.249L19.9841 32.7799C19.293 32.4213 18.1656 31.894 17.5395 31.5055C17.5381 31.3387 17.538 31.1722 17.539 31.0057C17.5412 30.8347 17.5138 30.6847 17.6129 30.5875L17.637 30.5438C18.8026 31.1106 19.9932 31.7535 21.1463 32.3555L26.8443 35.3282L29.1588 36.5352C29.6758 36.8043 30.4232 37.2612 30.9801 37.3236Z" fill="#48754E"/>
<path d="M17.6129 30.5869C18.4113 31.0297 19.3085 31.4702 20.1262 31.8946L24.7671 34.3162L28.2622 36.144C28.8894 36.4746 30.3655 37.338 30.9885 37.4218C30.9915 37.6502 31.0535 38.0865 30.9364 38.2813C30.9012 38.3398 30.7313 38.3108 30.6663 38.3031C30.1929 38.1401 29.0287 37.4998 28.5339 37.2415L24.712 35.2485L19.9841 32.7793C19.293 32.4208 18.1656 31.8934 17.5395 31.505C17.5381 31.3381 17.538 31.1717 17.539 31.0052C17.5412 30.8341 17.5138 30.6841 17.6129 30.5869Z" fill="#8BAB7A"/>
<path d="M30.9804 37.3236C31.1148 37.3102 31.5403 37.252 31.6352 37.19C32.9597 36.3259 34.4648 35.1974 35.7388 34.3214L46.2536 27.0614C46.6516 26.787 49.0913 25.0492 49.3235 24.9619L49.3343 25.0059C49.1077 25.2267 48.1858 25.8379 47.8663 26.0576L44.8641 28.1252L36.3285 34.042L33.3393 36.1254C32.82 36.4878 32.2934 36.8624 31.7661 37.2137C31.548 37.3595 31.2495 37.4143 30.9888 37.4223C30.3658 37.3385 28.8898 36.4752 28.2626 36.1445L24.7674 34.3168L20.1266 31.8951C19.3089 31.4707 18.4117 31.0302 17.6133 30.5875L17.6374 30.5438C18.803 31.1106 19.9936 31.7535 21.1467 32.3555L26.8447 35.3282L29.1592 36.5352C29.6762 36.8043 30.4236 37.2612 30.9804 37.3236Z" fill="#426348"/>
<path d="M17.5536 28.292C17.871 28.5017 21.3686 30.3046 21.5737 30.3245C21.8281 30.401 22.8668 30.9865 23.1672 31.1434L28.5218 33.9635C29.3572 34.3971 30.0675 34.9807 31.0238 35.0652C30.9591 35.3163 30.9836 35.9248 30.9836 36.2106C30.5148 36.2118 29.7349 35.7365 29.3051 35.513C28.6236 35.1601 27.9435 34.8039 27.2658 34.4441L20.7842 31.0504C19.9421 30.613 18.4515 29.7715 17.6399 29.4271L17.6047 29.4194L17.5498 29.3704L17.5536 28.292Z" fill="#8BAB7A"/>
<path d="M17.611 29.4775C20.0544 30.8235 22.7232 32.1307 25.2058 33.4311L28.2734 35.0484C29.0216 35.4433 29.8019 35.8777 30.5722 36.2213C30.7207 36.2875 30.8719 36.2975 30.997 36.3415C30.9894 36.6354 31.0001 37.0521 30.9805 37.3238C30.4237 37.2615 29.6763 36.8045 29.1593 36.5355L26.8448 35.3285L21.1468 32.3558C19.9937 31.7538 18.8031 31.1109 17.6375 30.5441L17.6033 30.5318L17.5278 30.4626C17.5315 30.2414 17.505 29.6145 17.611 29.4775Z" fill="#8BAB7A"/>
<path d="M30.9834 36.2106C31.2616 36.1777 31.4885 36.1693 31.7265 36.0155C32.3124 35.637 32.893 35.2202 33.4659 34.8222L37.0283 32.3474L48.4291 24.449C48.576 24.3457 48.9748 23.9921 49.0938 24.0709C49.0475 24.1509 49.0521 24.1517 48.9759 24.2045L38.5323 31.4194L34.3116 34.3454C33.5275 34.8915 32.7506 35.4476 31.9627 35.9879C31.6879 36.1762 31.3343 36.3323 30.9964 36.3415C30.8712 36.2975 30.7201 36.2876 30.5716 36.2214C29.8012 35.8777 29.0209 35.4433 28.2728 35.0484L25.2051 33.4312C22.7226 32.1308 20.0538 30.8235 17.6104 29.4776L17.6396 29.4271C18.4513 29.7715 19.9418 30.613 20.7839 31.0504L27.2655 34.4441C27.9433 34.8039 28.6233 35.1602 29.3049 35.513C29.7346 35.7365 30.5146 36.2118 30.9834 36.2106Z" fill="#426348"/>
<path d="M48.735 23.0615L48.7626 23.086C48.864 23.06 48.9421 23.0083 49.0335 22.957C48.7561 23.2065 47.7848 23.8185 47.4305 24.0603L44.2109 26.2883C40.6721 28.7318 37.1391 31.1902 33.5927 33.6222C33.4837 33.6969 33.4224 33.752 33.29 33.7585C33.6785 33.4604 34.0753 33.1894 34.4775 32.9108C37.3485 31.0234 40.1478 28.9182 43.0119 27.0078C44.2017 26.2141 45.4967 25.3439 46.6402 24.4931C46.564 24.0994 46.964 24.0775 47.1763 23.7243C47.3849 23.7312 47.4167 23.7197 47.6168 23.6558C47.7075 23.6914 47.6792 23.6734 47.7477 23.7377L48.735 23.0615Z" fill="#11211A"/>
<path d="M47.1765 23.7248C47.3851 23.7316 47.4168 23.7202 47.617 23.6562C47.7077 23.6918 47.6794 23.6739 47.7479 23.7381L46.6404 24.4936C46.5642 24.0998 46.9641 24.078 47.1765 23.7248Z" fill="#A6BB8D"/>
<path d="M11.4431 25.1309C11.8459 25.3765 12.4555 25.6705 12.8857 25.8932L15.4646 27.2288C15.8454 27.4266 16.5173 27.7557 16.8544 27.9811C17.029 28.0232 17.0433 28.0389 17.1987 28.1377C17.1675 28.4434 17.1769 28.7389 17.1738 29.0458C17.1541 30.9868 17.2032 32.937 17.1693 34.8776C16.9145 34.728 16.6279 34.5799 16.364 34.4425C14.7012 33.5784 13.0504 32.6653 11.376 31.8253C11.4276 31.2252 11.3963 30.1682 11.3957 29.5387L11.3987 25.2258L11.4431 25.1309Z" fill="#FEFEFC"/>
<path d="M11.4429 25.1309C11.8457 25.3765 12.4553 25.6705 12.8855 25.8932L15.4643 27.2288C15.8452 27.4266 16.5171 27.7557 16.8541 27.9811C16.6178 27.9452 15.9221 27.5567 15.6755 27.4282L12.9034 25.9797C12.5523 25.796 11.7369 25.3455 11.3984 25.2258L11.4429 25.1309Z" fill="#A1A0A8"/>
<path d="M17.7944 28.0702C18.1037 27.9091 18.5368 27.5356 18.958 27.3105L26.8794 31.426C27.608 31.8072 28.3336 32.1944 29.0554 32.5882C29.3221 32.7321 29.9796 33.1033 30.2142 33.1959L30.2352 33.2162C30.4013 33.2113 30.7916 33.4409 30.9612 33.5304C31.0657 33.4554 31.2226 33.3291 31.3385 33.2912L31.4066 33.3142C31.6504 33.181 32.5918 32.5396 32.7682 32.3624C32.9087 32.3471 33.2401 32.5599 33.4418 32.6353C33.8199 32.7769 34.0962 32.8163 34.4773 32.9108C34.0751 33.1894 33.6783 33.4604 33.2899 33.7585C32.8413 34.0344 31.9401 34.7899 31.5624 34.9292C31.3358 35.0206 31.2677 35.0432 31.0239 35.0646C30.0676 34.9801 29.3573 34.3964 28.5219 33.9629L23.1673 31.1428C22.8669 30.9859 21.8282 30.4004 21.5738 30.3239C21.161 30.0709 20.5814 29.7889 20.1429 29.5608C19.2883 29.1214 18.4376 28.6745 17.5908 28.2202L17.7944 28.0702Z" fill="#A6BB8D"/>
<path d="M17.7944 28.0703C18.2578 28.2659 18.7572 28.5514 19.207 28.7905L21.4988 30.004L29.7775 34.3242C30.0913 34.4876 30.5176 34.7268 30.8403 34.8458C30.9983 34.904 31.3615 34.7992 31.5624 34.9293C31.3358 35.0207 31.2677 35.0433 31.0239 35.0647C30.0676 34.9802 29.3573 34.3966 28.5219 33.963L23.1673 31.1429C22.8669 30.986 21.8282 30.4005 21.5738 30.324C21.161 30.071 20.5814 29.789 20.1429 29.5609C19.2883 29.1216 18.4376 28.6746 17.5908 28.2203L17.7944 28.0703Z" fill="#E4E9D1"/>
<path d="M30.2354 33.2159C30.4014 33.2109 30.7918 33.4405 30.9613 33.5301C31.0658 33.4551 31.2227 33.3288 31.3387 33.2909L31.4068 33.3139L30.964 33.6173C30.7175 33.4899 30.4745 33.356 30.2354 33.2159Z" fill="#426348"/>
<path d="M14.4598 23.0605C16.1269 23.8611 17.7661 24.7543 19.4336 25.5588C19.7047 25.6896 19.985 25.8324 20.2471 25.9797L18.3182 27.3096C18.0538 27.4925 17.3912 27.9288 17.199 28.1373C17.0436 28.0386 17.0293 28.0229 16.8546 27.9808C16.5176 27.7554 15.8457 27.4263 15.4648 27.2284L12.8859 25.8928C12.4558 25.6701 11.8462 25.3762 11.4434 25.1305C11.7207 24.8921 12.2701 24.5373 12.5863 24.3238L14.4598 23.0605Z" fill="#FEFEFC"/>
<path d="M20.6486 26.1787C21.2303 26.5507 22.7707 27.2728 23.4289 27.6027L28.8126 30.3076C29.1383 30.471 30.5929 31.146 30.7838 31.3175C30.695 31.3133 30.6059 31.3117 30.5167 31.3129C29.6767 31.3182 29.0414 31.5486 28.4494 32.1498C28.0541 31.9539 27.65 31.7392 27.2604 31.5303C24.5387 30.0691 21.7483 28.7056 19.0352 27.2334C19.258 27.0608 20.4238 26.2564 20.6486 26.1787Z" fill="#E4E9D1"/>
<path d="M47.2132 22.5986L47.4975 23.0031C47.4945 23.4375 47.5132 23.4417 47.1765 23.7249C46.9641 24.0781 46.5642 24.0999 46.6403 24.4937C45.4968 25.3444 44.2018 26.2147 43.012 27.0084C40.148 28.9188 37.3486 31.0239 34.4776 32.9114C34.0965 32.8168 33.8202 32.7774 33.4421 32.6358C33.2404 32.5604 32.909 32.3477 32.7686 32.363L32.7873 32.2665C32.883 32.2734 32.847 32.2757 32.9404 32.2451C33.3927 32.2325 33.71 32.2378 34.1126 31.9925C35.3731 31.2233 36.5836 30.35 37.7998 29.5135C39.6539 28.2468 41.4947 26.9609 43.3224 25.6559C43.8539 25.2694 44.4804 24.7761 45.007 24.3743C45.5263 23.9782 46.8914 23.069 47.2132 22.5986Z" fill="#779A6A"/>
<path d="M0.0119042 24.6064C0.405578 24.9 1.21095 25.2983 1.66804 25.5375L4.4567 26.9895L8.8054 29.2669C9.59677 29.6798 10.5111 30.1826 11.3168 30.5469C11.3166 30.9017 11.3306 31.416 11.3121 31.7582L4.03146 27.9535L1.73964 26.7606C1.27574 26.518 0.266394 26.0844 0.0424056 25.65C-0.0224604 25.3818 0.00440343 24.8965 0.0119042 24.6064Z" fill="#8BAB7A"/>
<path d="M17.5446 31.5908L26.9489 36.5011L29.1555 37.6591C29.5416 37.8623 30.2488 38.2592 30.6426 38.3721C30.7609 38.405 30.8672 38.436 30.9886 38.4593L30.987 39.3904C30.4344 39.3835 29.4651 38.7846 28.9465 38.5102L26.3163 37.1215L17.5466 32.5567C17.5425 32.2349 17.5419 31.9127 17.5446 31.5908Z" fill="#8BAB7A"/>
<path d="M21.4067 25.9121C22.357 26.3514 23.3893 26.9083 24.3334 27.3859L29.5751 30.026C30.479 30.4807 32.528 31.6605 33.4139 31.7902L32.8574 32.1767C32.3902 31.8182 31.9225 31.5426 31.3424 31.3991C31.2084 31.3662 30.8544 31.349 30.7836 31.3172C30.5927 31.1458 29.1381 30.4707 28.8124 30.3073L23.4287 27.6025C22.7705 27.2726 21.2301 26.5504 20.6484 26.1785L20.6488 26.1536C20.8791 25.9634 21.0943 26.0617 21.4067 25.9121Z" fill="#8BAB7A"/>
<path d="M32.9404 32.2446C33.4242 31.8141 33.8122 31.7096 34.3009 31.3729C35.2044 30.7502 36.1068 30.1104 37.0073 29.4812C39.623 27.6386 42.2517 25.8139 44.893 24.008C45.6228 23.5132 46.3178 22.972 47.0602 22.4902C47.1451 22.5166 47.1172 22.5044 47.1891 22.5557L47.2133 22.5982C46.8914 23.0685 45.5264 23.9778 45.007 24.3738C44.4805 24.7757 43.854 25.2689 43.3224 25.6555C41.4947 26.9604 39.654 28.2463 37.7998 29.513C36.5836 30.3495 35.3732 31.2228 34.1126 31.9921C33.71 32.2374 33.3928 32.232 32.9404 32.2446Z" fill="#48754E"/>
<path d="M28.4961 32.2022C28.8256 31.8846 29.1425 31.668 29.5764 31.5253C30.8435 31.1089 31.6931 31.704 32.7868 32.2662L32.7681 32.3626C32.5916 32.5398 31.6502 33.1812 31.4065 33.3143L31.3383 33.2914C31.2224 33.3293 31.0655 33.4556 30.961 33.5306C30.7915 33.441 30.4011 33.2114 30.235 33.2164L30.214 33.1961C30.0751 33.0028 28.8363 32.4181 28.4961 32.2022Z" fill="#8BAB7A"/>
<path d="M14.9299 22.7646C16.4859 23.5499 18.0411 24.3375 19.6008 25.1155C20.1108 25.37 20.3289 25.3271 20.8209 25.5958C20.6995 25.6785 20.5453 25.7772 20.4312 25.8644L20.3386 25.9284L20.2472 25.9804C19.9851 25.8331 19.7049 25.6903 19.4337 25.5594C17.7663 24.755 16.1271 23.8618 14.46 23.0612L14.9299 22.7646Z" fill="#E4E9D1"/>
<path d="M47.5164 21.3174C47.9549 21.5252 49.0999 21.9672 49.3211 22.4134C49.4394 22.6514 48.8684 22.9235 48.7345 23.0617L47.7471 23.7379C47.6786 23.6736 47.707 23.6916 47.6163 23.656C47.4161 23.7199 47.3843 23.7314 47.1758 23.7245C47.5125 23.4413 47.4938 23.4371 47.4969 23.0028L47.2125 22.5983L47.1884 22.5558C47.1781 22.3242 47.444 22.1949 47.493 21.8466C47.5233 21.6335 47.5179 21.5348 47.5164 21.3174Z" fill="#9BB484"/>
<path d="M20.3107 26.0059C20.4006 26.0457 20.562 26.1226 20.6495 26.1536L20.6491 26.1785C20.4243 26.2561 19.2585 27.0606 19.0357 27.2332L18.7871 27.0923C19.119 26.8646 20.0515 26.2584 20.3107 26.0059Z" fill="#A6BB8D"/>
<path d="M1.90103 16.0801L1.94845 16.0981C2.22368 16.2266 2.49654 16.36 2.76687 16.4985C2.47109 16.6685 2.23355 16.8152 1.95002 17.0048L1.89973 17.0513C1.85438 16.8503 1.845 16.2812 1.90103 16.0801Z" fill="#FEFEFC"/>
<path d="M1.90103 16.0801L1.94845 16.0981C1.94343 16.4004 1.94397 16.7026 1.95002 17.0048L1.89973 17.0513C1.85438 16.8503 1.845 16.2812 1.90103 16.0801Z" fill="#E2E2E4"/>
<path d="M18.6868 27.1484L18.9576 27.3103C18.5364 27.5353 18.1033 27.9088 17.794 28.07L17.5904 28.22C17.4855 28.1748 17.4461 28.1729 17.3857 28.0788C17.4785 27.9796 18.4737 27.3042 18.6868 27.1484Z" fill="#507C54"/>
<path d="M17.2976 34.8333C17.2578 34.6718 17.2293 33.8551 17.306 33.707C17.377 33.7193 17.4376 33.7296 17.5095 33.738L17.5611 33.7434L17.5871 33.751L17.5609 33.7977L17.5259 34.9515L17.2976 34.8333Z" fill="#48754E"/>
<path d="M17.2679 33.5711C17.2739 33.3147 17.1832 32.7119 17.3608 32.5527L17.5251 32.5734L17.5522 32.6274C17.55 32.9523 17.5328 33.431 17.5614 33.7429C17.4746 33.6713 17.3686 33.6235 17.2679 33.5711Z" fill="#48754E"/>
<path d="M17.2681 29.2103C17.2759 28.9068 17.1993 28.4686 17.3184 28.2344C17.4336 28.2015 17.4088 28.2203 17.5537 28.2918L17.5499 29.3703C17.4483 29.3182 17.3653 29.2685 17.2681 29.2103Z" fill="#48754E"/>
<path d="M17.5272 30.4621C17.444 30.4292 17.4079 30.4062 17.3301 30.3607C17.2151 30.1112 17.2283 29.6213 17.3015 29.3588C17.545 29.3351 17.3074 29.4166 17.6045 29.4189L17.6397 29.4266L17.6104 29.4771C17.5044 29.6141 17.5309 30.2409 17.5272 30.4621Z" fill="#48754E"/>
<path d="M20.4312 25.8644C20.9987 25.8058 20.6855 25.4794 21.4072 25.9126C21.0948 26.0622 20.8796 25.9639 20.6493 26.1541C20.5618 26.1231 20.4004 26.0462 20.3105 26.0064L20.3387 25.9283L20.4312 25.8644Z" fill="#366042"/>
<path d="M17.2685 31.3894C17.2731 31.1185 17.1741 30.6792 17.3518 30.5085C17.4468 30.5046 17.5107 30.518 17.6035 30.5318L17.6376 30.5441L17.6135 30.5877C17.5144 30.6849 17.5419 30.8349 17.5396 31.006C17.5386 31.1724 17.5388 31.3389 17.5401 31.5058C17.4698 31.4686 17.3459 31.4216 17.2685 31.3894Z" fill="#48754E"/>
<path d="M17.5248 32.5734C17.4554 32.4885 17.3993 32.4885 17.2896 32.3974C17.2606 32.1815 17.1588 31.6454 17.3748 31.5264L17.5447 31.5907C17.542 31.9125 17.5426 32.2347 17.5467 32.5566L17.5248 32.5734Z" fill="#48754E"/>
<path d="M33.0358 9.45508L33.2727 9.58225L42.613 14.0886C41.0975 14.9609 41.3968 16.0172 42.8579 16.6808C40.2633 18.4498 37.664 20.3021 35.0564 22.0368C33.8241 21.1367 31.9926 20.8642 30.8116 22.0001C27.863 20.5095 24.7724 18.9856 21.8576 17.4411L21.6133 17.3152C22.0705 16.9907 22.5365 16.6486 23.0028 16.3396C23.2867 16.1514 23.3166 16.1612 23.6032 16.2281C24.0663 16.3542 24.5374 16.4482 25.0134 16.5094C27.0161 16.7745 29.2893 16.5836 30.9364 15.3189C32.5804 14.0564 32.4908 12.4566 31.2988 10.9346C31.2035 10.8344 31.174 10.8419 31.1736 10.7405C31.647 10.3479 32.4866 9.83765 33.0358 9.45508Z" fill="#E4E9D1"/>
<path d="M33.036 9.45508L33.2729 9.58225C32.643 9.99988 31.8944 10.482 31.299 10.9346C31.2037 10.8344 31.1742 10.8419 31.1738 10.7405C31.6472 10.3479 32.4868 9.83765 33.036 9.45508Z" fill="#A6BB8D"/>
<path d="M21.6133 17.3155C22.0705 16.991 22.5365 16.6489 23.0028 16.3399C23.2867 16.1517 23.3166 16.1616 23.6032 16.2284C23.0349 16.6256 22.4138 17.0372 21.8576 17.4414L21.6133 17.3155Z" fill="#A6BB8D"/>
<path d="M14.1858 2.38379C15.5064 3.18036 16.7565 3.28694 18.0651 2.40951L27.0745 6.78212C26.4905 7.13967 25.8576 7.59236 25.2694 7.97061C23.3222 7.31717 21.1264 7.01297 19.1463 7.68547C17.1882 8.35047 15.7511 9.76906 16.5064 11.9176C16.7372 12.4593 17.0018 12.7657 17.3816 13.2043C16.9078 13.5612 16.1099 14.0514 15.5939 14.3922C14.6276 13.9756 13.2757 13.2392 12.2985 12.7464C10.3787 11.7832 8.46387 10.8103 6.55401 9.82754C6.93184 9.64094 7.3148 9.39793 7.50309 9.00303C7.6203 8.76301 7.63305 8.48517 7.53829 8.23543C7.3543 7.74999 6.90777 7.49688 6.4668 7.29321C7.21698 6.77352 8.29434 6.13821 9.08987 5.63444L14.1858 2.38379Z" fill="#E4E9D1"/>
<path d="M28.6836 5.81738C29.956 6.38564 31.2388 7.02515 32.5074 7.61013C32.7975 7.74396 34.0745 8.32244 34.2823 8.45695L34.2643 8.53877C34.1109 8.61623 33.3256 9.12972 33.2303 9.23569C32.1247 9.93287 30.8967 10.8086 29.8075 11.5533L23.2314 16.0893C22.7209 16.4437 20.3161 18.0171 20.0741 18.3301C18.8131 17.6375 17.4664 17.0345 16.1838 16.3755C15.5529 16.0513 14.8764 15.7095 14.2285 15.4235C14.7292 15.04 15.4925 14.559 16.0295 14.2017L19.1568 12.1215L28.6836 5.81738Z" fill="#FEFEFC"/>
<path d="M33.2982 26.9506C33.4957 26.9433 33.7012 26.9353 33.8761 26.835C34.3556 26.5606 34.8121 26.2212 35.2641 25.9024C35.8695 25.4772 36.478 25.0563 37.0899 24.6403C39.3374 23.1053 41.5769 21.5585 43.8076 19.9994C44.8746 19.2596 46.2768 18.2283 47.3468 17.5674C47.4191 17.7752 47.3935 18.3615 47.3793 18.606L47.3219 18.6772L47.3456 18.7334C47.4091 18.8502 47.3889 20.6228 47.3586 20.8203C47.0471 21.1432 45.6273 22.0139 45.1907 22.3361C44.2068 23.0621 43.1429 23.7712 42.133 24.4681L36.2794 28.5521C35.4941 29.0978 34.7057 29.652 33.9224 30.2008C33.7662 30.3098 33.488 30.337 33.2971 30.358C32.6442 30.2685 31.5906 29.6573 30.9496 29.3359L27.2502 27.4703L22.8423 25.2415C22.0878 24.8641 21.1636 24.4359 20.4437 24.0398L20.2178 23.9132C20.0642 23.6679 20.1351 23.1482 20.1375 22.8213C20.2699 22.8734 20.3461 22.9205 20.4847 22.8956L20.4525 22.8558L20.1375 22.723C20.1336 22.4463 20.1147 22.0315 20.1522 21.7678L20.2095 21.7291C20.327 21.7816 20.3503 21.8034 20.4831 21.7858L20.4511 21.751C20.3596 21.7119 20.2916 21.6798 20.2039 21.6358C20.0651 21.4234 20.1363 20.8761 20.1375 20.6002C20.2425 20.6385 20.3496 20.6905 20.4518 20.7372C21.1506 21.1165 21.8861 21.4639 22.5958 21.8267L27.7894 24.4577C28.7691 24.9499 32.4873 26.9693 33.2722 27.0688L33.2481 26.9816L33.2982 26.9506Z" fill="#45724C"/>
<path d="M47.3458 18.7334C47.4094 18.8501 47.3891 20.6227 47.3589 20.8202C47.0473 21.1432 45.6276 22.0138 45.1909 22.336C44.207 23.062 43.1431 23.7711 42.1332 24.468L36.2796 28.5521C35.4943 29.0978 34.706 29.6519 33.9226 30.2007C33.7665 30.3098 33.4882 30.337 33.2973 30.358L33.29 29.265C33.1166 29.2562 33.0145 29.2291 32.8457 29.1916L32.8721 29.1051C32.9739 29.128 33.1836 29.1962 33.2448 29.0955C33.36 28.9049 33.2942 28.4335 33.2942 28.1985C33.5732 28.1637 33.8059 28.1147 34.0439 27.9574C34.8671 27.414 35.6768 26.8239 36.4908 26.2663C38.4866 24.9077 40.472 23.5346 42.4478 22.1474L45.5702 19.9833C46.0263 19.671 46.9731 19.0583 47.3458 18.7334Z" fill="#48754E"/>
<path d="M20.1375 22.8213C20.2699 22.8733 20.3461 22.9204 20.4847 22.8955L20.562 22.9265C21.2469 23.2055 22.6323 23.9609 23.3296 24.3145L29.6114 27.4913C30.5368 27.9574 31.9558 28.7277 32.8719 29.1051L32.8455 29.1916C33.0143 29.2291 33.1165 29.2562 33.2898 29.265L33.2971 30.358C32.6442 30.2684 31.5907 29.6573 30.9497 29.3358L27.2502 27.4702L22.8424 25.2414C22.0878 24.8641 21.1637 24.4359 20.4438 24.0398L20.2178 23.9131C20.0643 23.6678 20.1351 23.1481 20.1375 22.8213Z" fill="#8BAB7A"/>
<path d="M20.5615 22.9268C21.2464 23.2057 22.6317 23.9612 23.329 24.3148L29.6109 27.4915C30.5362 27.9576 31.9553 28.728 32.8714 29.1053L32.845 29.1918C31.8791 28.7482 30.8799 28.2247 29.9262 27.7448L25.3194 25.4257L22.2585 23.8777C21.7544 23.6233 20.9889 23.2635 20.5205 22.9784L20.5615 22.9268Z" fill="#426348"/>
<path d="M20.1375 22.8213C20.2699 22.8733 20.3461 22.9204 20.4847 22.8955L20.562 22.9265L20.521 22.9782C20.4093 23.1083 20.4435 23.8259 20.4438 24.0398L20.2178 23.9131C20.0643 23.6678 20.1351 23.1481 20.1375 22.8213Z" fill="#426348"/>
<path d="M20.1375 20.6006C20.2425 20.6389 20.3496 20.6909 20.4518 20.7376C21.1506 21.1168 21.8861 21.4643 22.5958 21.8271L27.7894 24.4581C28.7691 24.9502 32.4873 26.9697 33.2722 27.0692C33.3192 27.2824 33.3036 27.7936 33.281 28.019C33.2618 28.0378 33.2331 28.0696 33.2117 28.0814C32.5508 27.9746 30.1429 26.6567 29.4116 26.2889C26.4672 24.7811 23.5132 23.2917 20.5495 21.8218L20.4831 21.7862L20.4511 21.7513C20.3596 21.7123 20.2916 21.6802 20.2039 21.6361C20.0651 21.4238 20.1363 20.8765 20.1375 20.6006Z" fill="#8BAB7A"/>
<path d="M20.1375 20.6006C20.2425 20.6389 20.3496 20.6909 20.4518 20.7376C20.4502 21.0323 20.434 21.4678 20.4511 21.7513C20.3596 21.7123 20.2916 21.6802 20.2039 21.6361C20.0651 21.4238 20.1363 20.8765 20.1375 20.6006Z" fill="#426348"/>
<path d="M20.1371 22.7233C20.1332 22.4467 20.1144 22.0318 20.1518 21.7681L20.2091 21.7295C20.3266 21.7819 20.3499 21.8037 20.4827 21.7861L20.5491 21.8217L20.481 21.873C21.4176 22.3062 22.436 22.8653 23.3655 23.3341L29.7755 26.5644C30.578 26.9658 32.5466 28.0416 33.2936 28.1989C33.2936 28.4338 33.3594 28.9053 33.2442 29.0959C33.183 29.1965 32.9733 29.1284 32.8715 29.1055C31.9553 28.7281 30.5363 27.9578 29.611 27.4917L23.3291 24.315C22.6318 23.9613 21.2464 23.2059 20.5615 22.9269L20.4843 22.8959L20.4521 22.8561L20.1371 22.7233Z" fill="#8BAB7A"/>
<path d="M20.1371 22.7233C20.1332 22.4467 20.1144 22.0318 20.1518 21.7681L20.2091 21.7295C20.3266 21.7819 20.3499 21.8037 20.4827 21.7861L20.5491 21.8217L20.481 21.873C20.4276 22.077 20.4458 22.6208 20.4521 22.8561L20.1371 22.7233Z" fill="#426348"/>
<path d="M33.2118 28.0816C33.7054 28.1933 34.6629 27.4222 35.0563 27.1497L37.2534 25.6266L44.8387 20.3708L46.3977 19.2885C46.6231 19.1312 47.1027 18.7757 47.3219 18.6777L47.3457 18.734C46.9729 19.0589 46.0261 19.6716 45.57 19.9839L42.4476 22.148C40.4718 23.5352 38.4864 24.9083 36.4907 26.2669C35.6767 26.8245 34.8669 27.4146 34.0437 27.958C33.8057 28.1153 33.573 28.1642 33.294 28.1991C32.547 28.0418 30.5785 26.966 29.776 26.5646L23.3659 23.3343C22.4364 22.8655 21.418 22.3064 20.4814 21.8732L20.5496 21.8219C23.5132 23.2918 26.4672 24.7813 29.4116 26.2891C30.143 26.6568 32.5509 27.9748 33.2118 28.0816Z" fill="#426348"/>
<path d="M33.23 9.23598C33.3252 9.13001 34.1105 8.61652 34.264 8.53906C34.3558 8.58904 34.4435 8.62896 34.5189 8.70014L43.3758 12.9831C44.0088 13.29 46.9502 14.6578 47.3022 14.9975C47.3371 15.1257 47.3359 15.1162 47.2927 15.2424C47.1285 15.4156 46.5813 15.7797 46.3612 15.9333L44.6602 17.1175L37.5831 22.0039L35.36 23.5465C35.1664 23.6816 34.5391 24.1404 34.3849 24.217C34.2322 24.3276 34.0818 24.4408 33.9341 24.5576C33.6758 24.6659 33.6046 24.6927 33.3184 24.7041L32.9299 24.68C32.9667 24.7049 32.1335 24.3364 32.062 24.3008C31.5557 24.0486 31.0513 23.7933 30.5484 23.5343C30.2943 23.4015 30.0023 23.2212 29.7475 23.1144C26.702 21.5573 23.577 19.8964 20.5079 18.4031C20.3783 18.3312 20.3283 18.3373 20.292 18.2328C20.5141 18.0224 21.1806 17.6091 21.4921 17.3698L21.7709 17.5042L30.9001 22.1432L30.9078 22.067C31.0448 21.8053 31.4876 21.5909 31.7547 21.4957C32.7321 21.1478 34.3111 21.4011 35.0592 22.1573C35.9325 21.5213 36.9072 20.878 37.8039 20.2622L41.2408 17.8957C41.3093 17.8046 41.3315 17.8111 41.4413 17.7564C41.9851 17.3956 42.5079 17.0047 43.0601 16.6433L42.9809 16.622C42.9227 16.6164 42.899 16.6099 42.8435 16.5902C41.5049 16.1139 41.2393 14.6734 42.754 14.1245L42.785 14.079C41.6985 13.5887 40.5137 12.9659 39.4253 12.4415C37.4174 11.4741 35.3799 10.5131 33.3872 9.5204C33.3199 9.48764 33.2606 9.45652 33.1947 9.42078C33.207 9.35928 33.2189 9.29767 33.23 9.23598Z" fill="#A6BB8D"/>
<path d="M30.9082 22.0666C31.0452 21.8048 31.488 21.5905 31.7551 21.4952C32.7325 21.1474 34.3115 21.4007 35.0596 22.1569C34.6058 22.5032 34.0218 22.8844 33.543 23.2112L33.4818 23.1875C33.4424 23.2062 33.266 23.292 33.225 23.2709C32.4604 22.8767 31.6479 22.5051 30.9082 22.0666Z" fill="#8BAB7A"/>
<path d="M42.754 14.124C43.1803 14.394 44.4891 14.9885 44.9977 15.2306C44.4045 15.6157 43.5362 16.193 42.9809 16.6215C42.9227 16.6159 42.899 16.6094 42.8435 16.5897C41.5049 16.1134 41.2393 14.6729 42.754 14.124Z" fill="#8BAB7A"/>
<path d="M20.663 18.2578L29.2201 22.57C30.2415 23.0862 31.3076 23.5271 32.3068 24.0816C32.6425 24.2684 33.6026 24.2465 33.7305 24.3682C33.7722 24.408 33.8124 24.4432 33.8579 24.4781C34.073 24.4364 34.1189 24.2569 34.3849 24.2171C34.2322 24.3277 34.0818 24.4409 33.934 24.5577C33.6757 24.666 33.6046 24.6928 33.3183 24.7042L32.9299 24.6801C32.9666 24.705 32.1335 24.3365 32.0619 24.3009C31.5556 24.0487 31.0512 23.7934 30.5484 23.5343C30.2943 23.4016 30.0023 23.2213 29.7474 23.1145C26.702 21.5574 23.5769 19.8965 20.5078 18.4032C20.5389 18.3236 20.5787 18.3183 20.663 18.2578Z" fill="#DEE5C5"/>
<path d="M33.2305 9.23598C33.3258 9.13001 34.1111 8.61652 34.2646 8.53906C34.3564 8.58904 34.444 8.62896 34.5194 8.70014C34.1739 8.94609 33.7074 9.26105 33.3878 9.5204C33.3205 9.48764 33.2611 9.45652 33.1953 9.42078C33.2076 9.35928 33.2194 9.29767 33.2305 9.23598Z" fill="#3F7049"/>
<path d="M42.7849 14.0791C43.3046 14.3111 44.6601 14.9405 45.1231 15.2231C44.6199 15.6004 43.5897 16.3689 43.0601 16.6433L42.9808 16.622C43.5361 16.1936 44.4045 15.6163 44.9976 15.2312C44.489 14.989 43.1802 14.3946 42.7539 14.1246L42.7849 14.0791Z" fill="#426348"/>
<path d="M21.4921 17.3691L21.7709 17.5035L20.6631 18.257C20.5787 18.3175 20.5389 18.3228 20.5079 18.4024C20.3783 18.3305 20.3283 18.3366 20.292 18.2321C20.5141 18.0217 21.1806 17.6084 21.4921 17.3691Z" fill="#4F7C53"/>
<path d="M30.908 22.0664C31.6478 22.505 32.4602 22.8766 33.2249 23.2707C33.2658 23.2918 33.4422 23.2061 33.4816 23.1873L33.5429 23.211C33.4407 23.2933 33.4323 23.2987 33.3152 23.358C33.1292 23.363 31.1947 22.3136 30.9004 22.1426L30.908 22.0664Z" fill="#426348"/>
<path d="M41.2412 17.8952C41.3097 17.8041 41.3319 17.8106 41.4417 17.7559C41.3503 17.8362 41.3487 17.8416 41.2412 17.8952Z" fill="#426348"/>
<path d="M34.3937 24.3419C37.3538 22.3355 40.2963 20.3026 43.22 18.243L45.972 16.3442C46.3413 16.0866 47.0959 15.5814 47.3841 15.2998C47.3921 15.6807 47.3918 16.0616 47.383 16.4424L47.3868 16.5308C47.3883 16.7054 47.422 17.4695 47.347 17.5679C46.277 18.2288 44.8748 19.2602 43.8079 19.9999C41.5772 21.559 39.3376 23.1059 37.0901 24.6408C36.4782 25.0568 35.8697 25.4778 35.2643 25.9029C34.8123 26.2217 34.3558 26.5612 33.8763 26.8356C33.7014 26.9358 33.4959 26.9439 33.2984 26.9511L33.2483 26.9821C32.463 26.8723 29.3797 25.167 28.4991 24.725C25.8099 23.376 23.1009 22.0492 20.4381 20.6497C20.3194 20.5973 20.3121 20.5977 20.2052 20.5143C20.0717 20.2349 20.1009 19.8182 20.168 19.5242C20.2517 19.5078 20.334 19.5392 20.4247 19.5595C20.3675 19.4684 20.241 19.4259 20.1377 19.3754V18.3436C20.2556 18.3842 20.3643 18.4401 20.4769 18.4937L26.9048 21.7484C27.2718 21.9337 29.5461 23.1709 29.7478 23.1143C30.0027 23.221 30.2947 23.4013 30.5488 23.5341C31.0516 23.7932 31.556 24.0484 32.0623 24.3006C32.1339 24.3362 32.967 24.7047 32.9303 24.6799L33.3187 24.704C33.6049 24.6925 33.6761 24.6657 33.9344 24.5574C34.0309 24.6251 34.1078 24.5325 34.1981 24.4743C34.2693 24.3894 34.2892 24.3944 34.3937 24.3419Z" fill="#48754E"/>
<path d="M34.3933 24.3419C37.3534 22.3355 40.2959 20.3026 43.2196 18.243L45.9716 16.3442C46.3409 16.0866 47.0955 15.5814 47.3837 15.2998C47.3917 15.6807 47.3913 16.0616 47.3825 16.4424C47.0209 16.6181 45.494 17.7382 45.0715 18.0302L37.4272 23.3091L35.1242 24.9003C34.7339 25.1705 34.3313 25.4582 33.9287 25.7101C33.7412 25.8275 33.5154 25.8467 33.2957 25.8765C33.2972 25.5727 33.3076 25.0855 33.2578 24.8012C33.2701 24.7648 33.2946 24.7373 33.3183 24.704C33.6045 24.6925 33.6757 24.6657 33.934 24.5574C34.0305 24.6251 34.1074 24.5325 34.1977 24.4743C34.2689 24.3894 34.2888 24.3944 34.3933 24.3419Z" fill="#48754E"/>
<path d="M34.1982 24.4742C34.2694 24.3892 34.2893 24.3942 34.3938 24.3418C34.3073 24.4149 34.2997 24.4298 34.1982 24.4742Z" fill="#426348"/>
<path d="M20.1377 18.3438C20.2556 18.3843 20.3643 18.4402 20.477 18.4938L26.9048 21.7485C27.2718 21.9338 29.5461 23.171 29.7478 23.1144C30.0027 23.2211 30.2947 23.4014 30.5488 23.5342C31.0516 23.7933 31.556 24.0485 32.0623 24.3007C32.1339 24.3363 32.967 24.7048 32.9303 24.68L33.3187 24.7041C33.295 24.7374 33.2705 24.7649 33.2582 24.8013C33.308 25.0856 33.2977 25.5728 33.2961 25.8766C32.5242 25.7825 29.9648 24.3573 29.0808 23.9142L20.6286 19.6411L20.4561 19.545L20.4247 19.5596C20.3675 19.4685 20.241 19.426 20.1377 19.3755V18.3438Z" fill="#8BAB7A"/>
<path d="M20.1377 18.3438C20.2556 18.3843 20.3643 18.4402 20.477 18.4938C20.4486 18.754 20.4429 19.2702 20.4561 19.545L20.4247 19.5596C20.3675 19.4685 20.241 19.426 20.1377 19.3755V18.3438Z" fill="#416E4A"/>
<path d="M32.93 24.6797L33.3185 24.7038C33.2947 24.7371 33.2703 24.7646 33.258 24.801C33.1436 24.8331 33.0204 24.806 32.9189 24.7474L32.93 24.6797Z" fill="#426348"/>
<path d="M20.4381 20.6496C20.3194 20.5972 20.3121 20.5976 20.2052 20.5142C20.0717 20.2348 20.1009 19.818 20.168 19.5241C20.2517 19.5077 20.334 19.5391 20.4247 19.5593L20.4561 19.5448L20.6286 19.6409L20.5613 19.6879C21.3998 20.1372 22.3159 20.5754 23.1701 21.0059C24.6737 21.7774 26.1811 22.5409 27.6928 23.2963L30.8511 24.8921C31.4228 25.1811 32.6869 25.8959 33.2877 25.9736L33.2984 26.951L33.2483 26.982C32.463 26.8722 29.3797 25.1669 28.4991 24.7249C25.8099 23.3759 23.1009 22.0491 20.4381 20.6496Z" fill="#8BAB7A"/>
<path d="M20.4381 20.6496C20.3194 20.5972 20.3121 20.5976 20.2052 20.5142C20.0717 20.2348 20.1009 19.818 20.168 19.5241C20.2517 19.5077 20.334 19.5391 20.4247 19.5593L20.4561 19.5448L20.6286 19.6409L20.5613 19.6879L20.486 19.6676C20.419 19.8119 20.4384 20.4556 20.4381 20.6496Z" fill="#426348"/>
<path d="M33.2963 25.8765C33.516 25.8467 33.7418 25.8275 33.9293 25.71C34.3319 25.4582 34.7345 25.1704 35.1248 24.9003L37.4278 23.309L45.0721 18.0302C45.4946 17.7382 47.0215 16.618 47.3831 16.4424L47.387 16.5308L38.1247 22.9401L35.4118 24.8142C34.8389 25.2099 33.9538 25.9672 33.2879 25.9737C32.6871 25.896 31.423 25.1812 30.8513 24.8922L27.693 23.2964C26.1813 22.541 24.6739 21.7775 23.1703 21.006C22.3161 20.5755 21.4 20.1373 20.5615 19.688L20.6288 19.6409L29.081 23.9141C29.965 24.3572 32.5244 25.7824 33.2963 25.8765Z" fill="#426348"/>
<path d="M14.6612 0.448326C15.7126 -0.252419 15.9727 -0.0476051 17.0485 0.487281C17.2541 0.589536 17.4955 0.700633 17.7061 0.800936C18.7834 1.28546 19.8911 1.84407 20.9598 2.36047L28.36 5.93565L27.1579 6.71457C25.4312 5.93075 23.654 4.95492 21.9465 4.19727C21.8289 4.17757 21.7998 4.14152 21.6932 4.07508C20.4964 3.48639 19.2763 2.91071 18.088 2.30866C16.6613 3.25176 15.5868 3.0802 14.1543 2.2816C13.3911 2.83991 12.2406 3.52454 11.4224 4.04527C9.87575 5.0385 8.32401 6.02378 6.76723 7.00098C6.10468 7.41432 4.67146 8.24966 4.11362 8.67869C5.55942 9.52172 7.56013 10.4273 9.09253 11.2202C10.4781 11.9355 11.8688 12.6406 13.2647 13.3355C13.8806 13.6467 14.9222 14.2163 15.5139 14.4582C15.3786 14.543 14.4731 15.1228 14.393 15.2125L14.2634 15.2756C13.8096 15.3095 3.36756 9.65463 2.08827 9.15185C1.94851 9.09694 1.75525 8.95247 1.70508 8.79002C1.76926 8.55616 2.0154 8.46902 2.24176 8.33933C2.4359 8.18395 3.20404 7.72557 3.46354 7.5625L6.04678 5.93438L14.6612 0.448326Z" fill="#A6BB8D"/>
<path d="M15.9087 1.12988C16.4218 1.44928 17.8055 1.99932 18.0879 2.30899C16.6612 3.25209 15.5867 3.08053 14.1543 2.28193C14.3674 2.06154 15.5807 1.31744 15.9087 1.12988Z" fill="#8BAB7A"/>
<path d="M2.24176 8.33887L2.25328 8.39504C2.11838 8.48662 1.87648 8.61084 1.80779 8.72014C1.90105 8.86966 2.44203 8.99717 2.68358 9.1313C3.14197 9.38591 3.59588 9.65907 4.05675 9.90518C5.87824 10.8734 7.71022 11.8218 9.55237 12.7502L12.8295 14.4191C13.2535 14.6347 14.0284 14.9902 14.393 15.2121L14.2634 15.2752C13.8096 15.3091 3.36756 9.65417 2.08827 9.1514C1.94851 9.09648 1.75525 8.95201 1.70508 8.78956C1.76926 8.5557 2.0154 8.46856 2.24176 8.33887Z" fill="#E4E9D1"/>
<path d="M14.6611 0.448326C15.7125 -0.252419 15.9727 -0.0476051 17.0484 0.487281C17.2541 0.589536 17.4955 0.700633 17.7061 0.800936C17.5576 0.973721 16.7809 0.92466 16.5315 0.940273C15.874 0.981374 15.2025 0.840775 14.6611 0.448326Z" fill="#A6BB8D"/>
<path d="M21.6924 4.0752C21.7908 4.11534 21.8627 4.13436 21.9458 4.19739C21.8281 4.17768 21.7991 4.14163 21.6924 4.0752Z" fill="#48754E"/>
<path d="M14.2282 15.4238C14.876 15.7099 15.5526 16.0516 16.1835 16.3758C17.466 17.0349 18.8127 17.6378 20.0738 18.3305L20.0609 18.3645C20.094 18.9856 20.0607 19.9906 20.0607 20.6347L20.0575 25.2472C18.1929 24.38 16.0446 23.2343 14.2 22.2955C14.1712 21.5374 14.1916 20.6324 14.1913 19.8654L14.1954 15.4872L14.2282 15.4238Z" fill="#FEFEFC"/>
<path d="M14.2281 15.4238C14.876 15.7099 15.5525 16.0516 16.1834 16.3758C17.466 17.0349 18.8127 17.6378 20.0737 18.3305L20.0608 18.3645C19.6259 18.2122 18.774 17.7404 18.323 17.525C16.9614 16.875 15.5663 16.098 14.1953 15.4872L14.2281 15.4238Z" fill="#A1A0A8"/>
<path d="M21.9154 7.39587C22.0376 7.38944 22.1496 7.36663 22.2527 7.42197C23.2428 7.45435 24.2604 7.71197 25.1957 8.03052L17.4413 13.153C14.9769 10.4576 17.1306 8.02597 20.1649 7.50463C20.7741 7.39997 21.2997 7.39067 21.9154 7.39587Z" fill="#8BAB7A"/>
<path d="M21.916 7.39587C22.0382 7.38944 22.1502 7.36663 22.2533 7.42197C22.1293 7.44333 22.04 7.41746 21.916 7.39587Z" fill="#779A6A"/>
<path d="M1.97809 17.1025L2.23036 17.3013C2.23997 17.6616 2.24123 18.0237 2.29182 18.3803C2.5222 18.2579 2.96873 17.9513 3.20577 17.7998L3.25219 17.7975C3.77892 17.7187 4.07053 17.0002 4.70025 17.455C5.17727 17.7994 5.38324 18.0241 5.44087 18.6218C5.27049 19.0512 4.79405 19.6027 4.31997 19.6528L4.26475 19.6807C5.09871 20.0803 5.966 20.5735 6.79012 20.9983L12.7695 24.1081L11.6132 24.8922C11.5455 24.942 11.5228 24.9523 11.4487 24.9929C11.0982 24.9297 8.39023 23.4299 7.92625 23.1869L2.84443 20.5154C2.03152 20.0879 1.21356 19.6585 0.398731 19.2341C0.208304 19.1346 0.119405 19.0378 0.063073 18.8342C-0.0971213 18.2177 1.48856 17.4189 1.97809 17.1025Z" fill="#B6C89B"/>
<path d="M3.2524 17.7979C3.77913 17.7191 4.07074 17.0007 4.70046 17.4555C5.17748 17.7998 5.38345 18.0245 5.44108 18.6222C5.2707 19.0516 4.79426 19.6031 4.32018 19.6532L4.26496 19.6811C3.63444 19.3589 2.84961 18.9927 2.24489 18.6196C2.18193 18.5809 2.19759 18.574 2.19043 18.499L2.29203 18.3808C2.52241 18.2583 2.96894 17.9518 3.20597 17.8002L3.2524 17.7979Z" fill="#8BAB7A"/>
<path d="M3.25248 17.7979C3.77921 17.7191 4.07082 17.0007 4.70054 17.4555C5.17756 17.7998 5.38352 18.0245 5.44116 18.6222C5.07703 18.4684 3.57596 17.8507 3.2542 17.8343L3.20605 17.8002L3.25248 17.7979Z" fill="#48754E"/>
<path d="M2.29203 18.3803C2.52241 18.2579 2.96894 17.9514 3.20597 17.7998L3.25412 17.8339C2.93541 18.0991 2.55211 18.2774 2.24424 18.5403C2.5701 18.7098 4.17816 19.4951 4.32018 19.6528L4.26496 19.6807C3.63444 19.3585 2.84961 18.9923 2.24489 18.6191C2.18193 18.5805 2.19759 18.5736 2.19043 18.4986L2.29203 18.3803Z" fill="#426348"/>
<path d="M0.0634766 18.8347L0.107524 18.8114C0.391327 18.9893 -0.104218 18.684 0.194663 18.8504C1.54805 19.6039 2.92856 20.3169 4.29833 21.0429L9.14503 23.5812C9.76984 23.9069 11.047 24.5299 11.6136 24.8927C11.5459 24.9425 11.5232 24.9528 11.4491 24.9934C11.0986 24.9302 8.39063 23.4305 7.92666 23.1875L2.84483 20.5159C2.03192 20.0884 1.21396 19.6591 0.399134 19.2347C0.208707 19.1352 0.119809 19.0383 0.0634766 18.8347Z" fill="#E4E9D1"/>
<path d="M23.3457 16.0758C23.9672 15.7385 25.0353 14.9502 25.6533 14.5226L29.4718 11.8969C29.6727 11.7578 30.9019 10.8849 31.0412 10.8389C31.1572 10.8857 31.148 10.8858 31.2241 10.9875C32.3891 12.3459 32.4534 13.9499 31.0271 15.1513C29.623 16.3337 27.4849 16.658 25.7084 16.5095C25.0357 16.455 24.3686 16.3422 23.715 16.1725C23.6729 16.155 23.4066 16.0914 23.3457 16.0758Z" fill="#8BAB7A"/>
<path d="M23.3457 16.0758C23.9672 15.7385 25.0353 14.9502 25.6533 14.5226L29.4718 11.8969C29.6727 11.7578 30.9019 10.8849 31.0412 10.8389C31.1572 10.8857 31.148 10.8858 31.2241 10.9875C29.4764 12.0867 27.6736 13.4441 25.9472 14.599C25.6265 14.8134 23.8914 15.9995 23.715 16.1725C23.6729 16.155 23.4066 16.0914 23.3457 16.0758Z" fill="#48754E"/>
<path d="M5.22533 17.7734L13.3353 21.8743C13.8809 22.151 14.3067 22.4591 14.8373 22.7189C14.6435 22.8345 14.4946 22.9279 14.3094 23.0569L12.8589 24.0473C12.4821 23.8643 12.0727 23.65 11.7042 23.4487C9.32904 22.1533 6.83738 20.9922 4.47656 19.6804C5.04574 19.3758 5.2884 19.2407 5.54247 18.618C5.51629 18.2174 5.46961 18.0964 5.22533 17.7734Z" fill="#E4E9D1"/>
<path d="M5.22559 17.7734L13.3356 21.8743C13.8812 22.151 14.3069 22.4591 14.8376 22.7189C14.6438 22.8345 14.4948 22.9279 14.3096 23.0569C14.1335 22.9076 12.343 22.0282 12.014 21.8629L5.54272 18.618C5.51654 18.2174 5.46986 18.0964 5.22559 17.7734Z" fill="#8BAB7A"/>
<path d="M33.2903 30.4508C33.4797 30.4321 33.7568 30.3988 33.9167 30.2924C34.606 29.8328 35.2933 29.3464 35.9718 28.8726L39.7256 26.2565L44.7392 22.7675C45.5869 22.1797 46.5658 21.5399 47.3863 20.9287C47.3917 21.241 47.4556 22.0025 47.234 22.1901C46.7748 22.5781 46.1567 22.9799 45.6604 23.3228L42.2992 25.6496L36.715 29.5457L34.914 30.8056C34.2769 31.2499 33.9267 31.6544 33.123 31.6425C33.4143 31.3788 33.3048 30.827 33.2903 30.4508Z" fill="#48754E"/>
<path d="M20.1375 23.9873L20.4874 24.1419C20.8406 24.3512 21.345 24.5759 21.725 24.7703L25.1255 26.4786C26.7852 27.3301 28.4515 28.169 30.1238 28.996C30.7595 29.3136 32.7407 30.3893 33.2898 30.4509C33.3044 30.8271 33.4138 31.379 33.1226 31.6426C32.7395 31.5309 32.0285 31.1425 31.6489 30.9504L29.1093 29.6634L20.4311 25.2789C20.3487 25.2387 20.2894 25.2062 20.2102 25.1595C20.0664 24.9119 20.1354 24.3176 20.1375 23.9873Z" fill="#8BAB7A"/>
<path d="M20.1375 23.9873L20.4874 24.1419C20.4205 24.2839 20.4344 25.0615 20.4311 25.2789C20.3487 25.2387 20.2894 25.2062 20.2102 25.1595C20.0664 24.9119 20.1354 24.3176 20.1375 23.9873Z" fill="#426348"/>
<path d="M1.61604 14.5898C2.29826 14.9804 3.11943 15.381 3.82446 15.7402C5.09209 16.395 6.36423 17.0409 7.64081 17.678L11.9036 19.8448C12.6173 20.2072 13.3996 20.6313 14.1209 20.9619C14.1253 21.3557 14.1232 21.7491 14.1144 22.1425L5.59315 17.825L3.25961 16.6349C2.78998 16.3966 2.29845 16.1577 1.84833 15.885C1.73272 15.815 1.67405 15.7066 1.60934 15.5902C1.60329 15.2667 1.61324 14.9156 1.61604 14.5898Z" fill="#8BAB7A"/>
<path d="M1.60961 13.4248C2.09314 13.7202 2.84823 14.0763 3.36865 14.342L6.43274 15.9046C8.98911 17.2198 11.5536 18.5192 14.1261 19.8028C14.1275 20.1678 14.1255 20.5326 14.12 20.8976C11.504 19.5842 8.89543 18.2563 6.29439 16.9136L3.35403 15.4202C2.79917 15.1364 2.13769 14.8178 1.6095 14.5007C1.58994 14.2257 1.6085 13.7176 1.60961 13.4248Z" fill="#8BAB7A"/>
<path d="M1.61703 8.9873C2.08747 9.28087 2.61214 9.52296 3.10895 9.77293L5.35193 10.9164L14.1345 15.3759C14.1155 15.6949 14.1183 16.0582 14.1135 16.3809C13.9772 16.4061 9.01669 13.8458 8.47978 13.5712L1.60547 10.079L1.61703 8.9873Z" fill="#8BAB7A"/>
<path d="M1.61638 12.332L14.1243 18.7181L14.1271 19.7395C11.2744 18.2282 8.23501 16.7397 5.34225 15.2658C4.55394 14.8584 3.76331 14.4554 2.97037 14.057C2.60326 13.8706 1.92777 13.5479 1.60547 13.3375L1.61638 12.332Z" fill="#8BAB7A"/>
<path d="M1.60449 10.1562C1.76522 10.2162 2.41805 10.574 2.60649 10.6711C3.31049 11.025 4.01185 11.384 4.71048 11.7483L11.1597 15.0131C12.0511 15.4598 13.234 16.1154 14.1195 16.4974L14.1146 17.5328C12.9372 16.9982 11.4409 16.1831 10.2619 15.5771L4.30502 12.5525C3.49533 12.1433 2.41044 11.5512 1.60633 11.1928C1.61142 10.8513 1.60568 10.4988 1.60449 10.1562Z" fill="#8BAB7A"/>
<path d="M1.61524 11.2607C2.34301 11.6878 3.4251 12.1924 4.19756 12.5858L9.07905 15.0627L12.4357 16.7638C12.9442 17.0216 13.609 17.3885 14.1221 17.6041L14.1187 18.6516L1.60254 12.249C1.62722 11.9747 1.61494 11.5465 1.61524 11.2607Z" fill="#8BAB7A"/>
<path d="M0.0165592 23.459C0.540386 23.8053 1.49183 24.2718 2.07302 24.5764L5.82622 26.5416L9.38031 28.4037C9.9031 28.6777 10.796 29.1779 11.3143 29.3857L11.3171 30.499C8.69211 29.0841 5.95974 27.6973 3.3129 26.3077L1.23704 25.2232C0.883048 25.0376 0.311959 24.7578 0.00366353 24.5351C0.00106123 24.1765 0.00538468 23.8176 0.0165592 23.459Z" fill="#8BAB7A"/>
<path d="M0.00797916 19.0156C0.353357 19.3918 1.36282 19.8457 1.87337 20.112L5.5059 22.0197C6.53277 22.5582 7.55131 23.1016 8.5773 23.6404C9.48546 24.1272 10.3995 24.6029 11.3192 25.0675L11.3184 25.8876C11.319 25.9519 11.311 25.9802 11.301 26.0437L11.2288 26.0621C11.009 26.0032 10.9072 25.8765 10.7003 25.7785C9.7592 25.3346 8.83378 24.823 7.9087 24.3396L2.54541 21.5418C1.94412 21.226 0.472107 20.4966 0.000976562 20.1606L0.00797916 19.0156Z" fill="#8BAB7A"/>
<path d="M0.0127813 20.2432L0.076002 20.2837C0.525472 20.5753 1.14796 20.8788 1.63504 21.1379L4.74417 22.7678L8.63606 24.8075C9.47538 25.2488 10.4603 25.7906 11.3169 26.1825L11.3184 27.2376C11.0578 27.0589 10.5078 26.7914 10.2068 26.6356L8.35409 25.6712L3.33289 23.0498C2.27207 22.4987 1.02928 21.8811 0 21.2864L0.0127813 20.2432Z" fill="#8BAB7A"/>
<path d="M0.00986001 22.4023C0.528865 22.7085 1.05085 22.9909 1.58777 23.2642C4.83922 24.9189 8.04464 26.7179 11.3141 28.3318L11.3158 29.3191C10.9779 29.1794 10.2897 28.7929 9.93922 28.6088L7.33379 27.2434C4.94259 25.9924 2.35927 24.6939 0.00878906 23.3874L0.00986001 22.4023Z" fill="#8BAB7A"/>
<path d="M0.00637333 21.373C0.0907566 21.4083 0.60999 21.7022 0.712781 21.7573L2.42421 22.6658L8.27359 25.7173C9.11567 26.1559 10.4883 26.9286 11.3177 27.286L11.3119 28.2576C10.598 27.9301 9.72151 27.4356 9.00832 27.0621L4.52729 24.7147L1.55673 23.1594C1.15666 22.9505 0.344441 22.5567 0.000976562 22.3206L0.00637333 21.373Z" fill="#8BAB7A"/>
<path d="M6.36538 7.31543C7.8777 8.09317 7.94314 8.95315 6.45811 9.8147C6.22248 9.67686 6.00844 9.57567 5.76195 9.45765C5.44321 9.289 4.52081 8.86112 4.30566 8.67746C4.32778 8.51964 4.6802 8.40131 4.81778 8.30644C5.29335 7.97856 5.92329 7.67612 6.36538 7.31543Z" fill="#8BAB7A"/>
<path d="M2.83984 16.5449C3.27687 16.7584 3.70916 16.9815 4.13643 17.2139C3.97007 17.3138 3.33554 17.677 3.25261 17.7979L3.20619 17.8002C2.96915 17.9518 2.52262 18.2583 2.29225 18.3808C2.24165 18.0241 2.24039 17.6621 2.23078 17.3017L1.97852 17.103C2.22956 16.9412 2.6116 16.7149 2.83984 16.5449Z" fill="#48754E"/>
<path d="M2.23047 17.3018C2.39296 17.382 3.13014 17.7226 3.20587 17.8003C2.96883 17.9518 2.52231 18.2583 2.29193 18.3808C2.24134 18.0241 2.24007 17.6621 2.23047 17.3018Z" fill="#A6BB8D"/>
</svg>
