<svg width="43" height="31" viewBox="0 0 43 31" fill="none" xmlns="http://www.w3.org/2000/svg">
<path d="M1.4712 24.205C1.40334 24.1809 1.33596 24.1558 1.26912 24.1291C0.515088 23.8297 0.00917241 23.1934 0.00481614 22.3644C-0.00125056 21.2074 0.00225028 20.0499 0.00259771 18.893L0.00307892 12.0123L0.00401441 5.31492C0.00326609 4.15995 -0.00456444 2.99835 0.00390757 1.84343C0.00527057 1.65875 0.0550339 1.38647 0.129625 1.2251C0.297408 0.861929 0.523265 0.623884 0.898225 0.4921C1.33487 0.338615 1.59619 -0.00991287 2.11913 0.000216128C2.50612 0.00769929 2.93415 0.102495 3.31644 0.170885L5.05037 0.477535L11.4807 1.57096L27.3643 4.28804L32.301 5.13265C32.9534 5.24503 33.8198 5.35276 34.4452 5.49462C34.8148 5.58121 35.1535 5.76722 35.425 6.03253C36.2027 6.77833 36.0896 7.40622 36.0929 8.39047L36.0921 11.0393C36.1038 14.6578 36.0421 18.3464 36.0969 21.9563C36.3935 21.9985 36.9668 22.1589 37.2712 22.2393L39.5295 22.8599C40.0389 23.001 40.5491 23.1381 41.0606 23.2717C42.9408 23.768 42.7684 23.8214 41.396 24.9851C40.0378 26.1233 38.6903 27.2744 37.3538 28.4378C37.0531 28.7021 36.7554 28.9693 36.4603 29.2398C36.2492 29.4349 35.7724 29.9002 35.5591 30.0143C34.9974 30.3155 34.1242 30.459 33.4946 30.3962C32.9358 30.3406 32.3449 30.1787 31.79 30.091C30.2258 29.8443 28.6808 29.5217 27.1264 29.2312C22.6333 28.4231 18.1464 27.5793 13.6664 26.6998L4.5781 24.9821C3.93254 24.8552 3.27712 24.7622 2.63485 24.6208C2.31257 24.55 1.56888 24.5866 1.4712 24.205Z" fill="#323131"/>
<path d="M36.0969 21.9561C36.3935 21.9983 36.9668 22.1586 37.2712 22.2391L39.5295 22.8596C40.0389 23.0008 40.5491 23.1379 41.0606 23.2715C42.9408 23.7678 42.7684 23.8212 41.396 24.9849C40.0378 26.1231 38.6903 27.2742 37.3538 28.4375C37.0531 28.7019 36.7554 28.9691 36.4603 29.2396C36.2492 29.4347 35.7724 29.9 35.5591 30.0141C34.9974 30.3153 34.1242 30.4588 33.4946 30.396C32.9358 30.3404 32.3449 30.1784 31.79 30.0908C30.2258 29.8441 28.6808 29.5215 27.1264 29.231C22.6333 28.4228 18.1464 27.5791 13.6664 26.6996L4.57809 24.9819C3.93254 24.855 3.27712 24.762 2.63485 24.6206C2.31257 24.5498 1.56887 24.5864 1.47119 24.2047C1.74986 24.2245 2.21018 24.3234 2.48655 24.3782C2.92709 24.4656 3.36815 24.5503 3.80971 24.6324L9.05682 25.6287L26.8616 28.979L31.4581 29.8412C32.1631 29.9724 32.886 30.1552 33.5988 30.2033C34.1844 30.2426 34.3846 29.9088 34.775 29.5982C35.0073 29.4133 35.4872 29.2997 35.7 29.0338C36.1418 28.5442 36.0923 28.0294 36.099 27.4321C36.1057 26.908 36.1049 26.3839 36.0971 25.8599L36.0969 21.9561Z" fill="#1A1A1A" fill-opacity="0.4"/>
<path d="M1.4372 0.546662C1.64601 0.534101 2.40101 0.680076 2.63913 0.721901C3.38876 0.85152 4.13761 0.985416 4.88568 1.12356L10.5932 2.12048L26.1773 4.82043C28.4997 5.22118 30.8235 5.61364 33.1438 6.02757C33.9376 6.16914 34.536 6.53135 34.8169 7.32459C34.8708 7.47698 34.9035 7.636 34.9141 7.79723C34.943 8.17722 34.9187 8.89819 34.9166 9.31177L34.92 11.7356L34.9147 17.9299L34.9155 24.5213C34.9198 25.8725 34.9184 27.224 34.9155 28.5753C34.9142 29.2067 34.6355 29.6401 34.1375 29.895C33.9241 30.0043 33.6827 30.0456 33.4436 30.0279C32.9091 29.9885 32.1597 29.8223 31.7365 29.741L29.4878 29.3073L24.3835 28.3527L9.30396 25.5072L3.76545 24.4534C3.01316 24.3091 2.25885 24.1781 1.50664 24.0298C1.11682 23.9531 0.704227 23.6399 0.466609 23.3237C0.302381 23.0947 0.180352 22.7825 0.163301 22.4998C0.13874 22.0927 0.153573 21.6672 0.156326 21.2594L0.156245 19.2422L0.15515 12.5555L0.155872 5.1046L0.15082 3.08581C0.142936 1.997 -0.0662456 0.661342 1.4372 0.546662Z" fill="url(#paint0_linear_17_3760)"/>
<path d="M2.77624 9.28231C2.86745 9.28095 3.01749 9.29658 3.10865 9.31435C4.56242 9.59778 6.01196 9.87861 7.46893 10.145C7.96057 10.2358 8.45281 10.3235 8.94557 10.408C9.59116 10.5191 10.2401 10.5446 10.4876 11.2973C10.5229 11.4067 10.5444 11.5201 10.5515 11.6348C10.5737 11.9695 10.5546 12.546 10.5545 12.8982L10.55 15.4343L10.5483 17.7763C10.5484 18.2165 10.5563 18.6676 10.5382 19.107C10.5228 19.479 10.2243 19.7254 9.88484 19.8283C9.53845 19.8724 7.01096 19.3411 6.47878 19.2433C5.65063 19.0987 4.82358 18.9477 3.99771 18.7903C3.60631 18.7168 2.87146 18.6382 2.57393 18.4185C2.3176 18.2312 2.14693 17.9489 2.09998 17.6349C2.07288 17.4449 2.08835 16.9203 2.08867 16.703L2.08979 14.7706L2.0965 11.6446C2.09698 11.1081 2.0806 10.5752 2.10086 10.0386C2.11839 9.57464 2.29988 9.33841 2.77624 9.28231Z" fill="white" fill-opacity="0.3"/>
<path d="M5.86106 11.1811C5.92758 11.1766 6.00084 11.1774 6.06787 11.179C6.5957 11.1945 7.09536 11.4206 7.45543 11.8069C7.9738 12.3543 7.99422 12.7613 7.97198 13.4611C8.0571 13.5467 8.08899 13.5946 8.16008 13.6942C8.18742 14.0884 8.18779 14.375 7.80992 14.5806C7.68658 14.9866 7.60477 15.1735 7.26207 15.4424L7.26106 15.5062C7.2598 15.5992 7.2486 15.8427 7.2978 15.9106C7.80508 16.525 8.61984 16.7744 9.22253 17.3081C9.58546 17.6296 9.85707 18.8381 9.53423 19.1444L9.4842 19.1142C9.40905 18.9378 9.4091 18.7088 9.4227 18.5193C9.50862 17.3193 8.51 17.1012 7.70042 16.5584C7.59606 16.6407 7.52003 16.6862 7.40794 16.7551C7.06345 16.9264 6.67432 16.9863 6.29426 16.927C5.73382 16.8417 5.20073 16.5018 4.863 16.0482C4.43916 16.2225 4.0403 16.2342 3.66008 16.4077C2.98766 16.7148 3.30046 17.6114 3.06113 17.9602L2.99501 17.9492C2.94458 17.8517 2.94156 17.6967 2.94234 17.5986C2.90476 16.2406 3.61726 16.161 4.71224 15.8828C5.22334 15.7532 5.29705 15.6463 5.3002 15.1521C5.20776 15.0323 4.85509 14.5807 4.84343 14.4433C4.80391 13.9773 4.48408 13.8886 4.44274 13.4333C4.37248 13.2396 4.56335 13.0155 4.57089 12.8848C4.62362 11.9699 4.75096 11.2799 5.86106 11.1811Z" fill="#737272"/>
<path d="M5.81959 11.3915C6.36698 11.3466 6.88864 11.527 7.28455 11.9126C7.81687 12.431 7.76834 12.9268 7.77015 13.614L7.96854 13.7463C7.94272 13.9468 7.96501 14.151 7.84181 14.3044C7.68062 14.3721 7.66657 14.4321 7.60307 14.5978C7.46538 14.9571 7.31323 15.123 7.04389 15.3958C7.03774 15.9996 7.05939 16.0388 7.52698 16.4288C7.29513 16.5881 7.15654 16.6343 6.88877 16.7174C6.16408 16.8099 5.51176 16.5295 5.05729 15.9608C5.56072 15.7553 5.51411 15.6329 5.50332 15.1144C5.13351 14.5002 5.09193 14.7304 4.90539 13.8662C4.6497 13.7027 4.5901 13.4031 4.69115 13.126C4.71408 13.1108 4.80383 13.0483 4.80402 13.0199C4.80971 12.176 4.83296 11.5588 5.81959 11.3915Z" fill="#E5E5E5"/>
<path d="M9.87732 3.80957C11.1415 4.0369 12.4021 4.24236 13.6725 4.42912C14.5106 4.55233 15.4088 4.73783 16.2457 4.82354C16.5932 5.12607 17.0002 5.43393 17.3265 5.75137C17.8316 6.24264 18.2595 6.68941 18.817 7.12742C19.8619 7.94819 21.1183 8.38718 22.4527 8.25484C22.8477 8.21568 23.3798 8.09411 23.7922 8.04408C25.2675 7.86507 25.9065 8.50368 26.8787 9.47064C27.0493 9.64013 27.4151 9.92513 27.6212 10.0873C27.6738 10.1381 27.6749 10.1353 27.7083 10.1994L27.6508 10.2221C27.4451 10.2075 27.2903 10.1444 27.0909 10.1059L25.4447 9.77309C23.7476 9.43742 22.0526 9.09022 20.3601 8.73151L13.9111 7.37161L11.9203 6.95477C11.1549 6.79867 10.095 6.73998 9.90496 5.81404C9.80626 5.33325 9.8708 4.32479 9.87732 3.80957Z" fill="#F0F0F0" fill-opacity="0.6"/>
<path d="M19.3726 5.32227C20.371 5.50624 21.3727 5.67245 22.3773 5.8208C22.5414 5.84443 22.7002 5.85865 22.8643 5.87613C23.8753 5.98388 24.8719 6.21316 25.873 6.38541L30.3012 7.1294C30.9167 7.23993 31.5335 7.34283 32.1517 7.43802C32.4919 7.48896 33.3019 7.58643 33.5962 7.69288C33.7346 7.83599 33.6806 8.70768 33.6769 8.96021C33.6774 9.51417 33.6817 10.0696 33.6571 10.623C33.6483 10.8192 33.6689 11.2315 33.6397 11.4058C33.6189 11.2215 33.632 10.8707 33.6336 10.6734C33.38 10.455 33.036 10.1871 32.8011 9.975C33.0964 10.0792 33.3522 10.4158 33.6221 10.5953C33.6267 10.4594 33.6435 10.3547 33.5948 10.2298L33.4823 10.1175L33.4588 10.1148C32.7613 9.55742 31.9884 9.20001 31.1209 9.41427C30.1211 9.66132 29.3546 9.84814 28.513 9.10749C28.3441 8.9589 28.3505 8.80236 28.2249 8.66523C27.8144 8.21659 27.3942 7.76538 26.9445 7.35523C25.9885 6.39655 24.4453 6.05888 23.1171 6.24261C21.1838 6.51008 20.8622 6.66189 19.3726 5.32227Z" fill="#F0F0F0" fill-opacity="0.6"/>
<path d="M33.658 9.44603C33.5236 9.32205 33.2422 9.10579 33.0906 8.99645C32.6275 8.6572 31.7201 8.47963 31.1667 8.6208C30.1214 8.88738 29.2943 9.10653 28.3543 8.39341C28.2717 8.33085 28.1737 8.24429 28.1587 8.13006C28.2373 8.0958 28.4695 8.24514 28.5502 8.2895C29.6326 8.88428 30.5167 8.1322 31.6266 8.20182C32.458 8.25399 32.9805 8.51325 33.6773 8.96128C33.6778 9.51525 33.6821 10.0707 33.6575 10.6241C33.6487 10.8203 33.6692 11.2325 33.6401 11.4069C33.6193 11.2225 33.6324 10.8718 33.634 10.6745C33.3803 10.4561 33.0364 10.1881 32.8015 9.97608C33.0968 10.0803 33.3525 10.4169 33.6225 10.5964C33.627 10.4605 33.6438 10.3557 33.5952 10.2308L33.4827 10.1186L33.6259 10.1831C33.6695 10.1041 33.6577 9.57335 33.658 9.44603Z" fill="#E5E5E5"/>
<path d="M17.3623 5.02832C17.692 5.06416 18.1464 5.12266 18.4647 5.1933C18.9235 5.65878 19.4257 6.14422 19.965 6.49064C21.1468 7.27359 22.4521 6.92124 23.7253 6.79226C25.4015 6.62247 26.6232 7.55405 27.6732 8.73379C28.1642 9.2853 28.379 9.70302 29.1383 9.90528C29.807 10.0834 30.3877 10.0494 31.0529 9.84686C31.5955 9.68023 32.0445 9.66809 32.5816 9.85018C32.6613 9.87711 32.7556 9.89329 32.8011 9.97539C33.036 10.1875 33.3799 10.4554 33.6336 10.6738C33.632 10.8711 33.6189 11.2218 33.6397 11.4062C33.277 11.3035 32.6527 11.2111 32.2564 11.1363C31.4391 10.9829 30.6237 10.8204 29.8099 10.6488C29.4743 10.5783 28.8112 10.4708 28.5471 10.3036C27.8044 9.83369 27.2127 9.17966 26.593 8.56975C25.6357 7.62776 24.6364 7.35844 23.3194 7.51C22.8212 7.56733 22.4719 7.66982 21.9534 7.67661C20.2919 7.69834 19.244 6.87845 18.1397 5.75376C17.9211 5.53084 17.6024 5.26043 17.3623 5.02832Z" fill="#F0F0F0" fill-opacity="0.6"/>
<path d="M12.4535 10.5723C13.71 10.8652 15.2246 11.1061 16.5031 11.3405L22.7197 12.5146C23.1724 12.6009 23.6374 12.6704 24.0952 12.75C24.3897 12.8012 24.6014 12.8615 24.6803 13.1951C24.7126 13.3311 24.6656 13.4348 24.5926 13.5415C24.5113 13.5907 24.4357 13.6392 24.3395 13.6238C23.929 13.5584 23.5086 13.4789 23.1005 13.4048L20.5386 12.9379L12.4368 11.4609C12.4331 11.1598 12.4433 10.8729 12.4535 10.5723Z" fill="#A6A4A4"/>
<path d="M12.4126 14.5986C12.8683 14.6535 13.4394 14.7831 13.8976 14.8729L16.1498 15.3002L22.1192 16.4173C23.8186 16.7445 25.4698 17.0817 27.1839 17.3522L27.1815 17.8894C26.7726 17.7953 26.1379 17.7042 25.7049 17.6221L21.9917 16.9249L12.4165 15.1139L12.4126 14.5986Z" fill="#A6A4A4"/>
<path d="M12.4289 16.3477C13.4269 16.4925 14.664 16.7836 15.6719 16.9821L18.421 17.5009C19.9072 17.7903 21.5155 18.1142 23.0106 18.3542L23.0092 18.8762C22.0819 18.7546 20.9094 18.4878 19.9708 18.3107L16.3295 17.627C15.016 17.3723 13.7399 17.1088 12.4175 16.8787L12.4289 16.3477Z" fill="#A6A4A4"/>
<path d="M12.4237 17.9053L18.7207 19.0914C19.5364 19.2432 20.7938 19.5302 21.5649 19.6042L21.5598 20.1339C21.2236 20.0992 20.8085 20.0112 20.4678 19.9492C19.8258 19.8327 19.1844 19.7127 18.5438 19.5895C16.5261 19.2047 14.4395 18.7853 12.422 18.4291C12.4216 18.2543 12.4222 18.0798 12.4237 17.9053Z" fill="#A6A4A4"/>
<path d="M12.4221 12.8184C13.0661 12.9319 13.7239 13.0748 14.3683 13.1987L17.6078 13.8022C18.2963 13.93 18.9564 14.0648 19.6502 14.1654L19.6468 14.7097L12.4189 13.3499L12.4221 12.8184Z" fill="#A6A4A4"/>
<path d="M5.64358 20.3066C5.94136 20.3336 6.25931 20.3849 6.55364 20.4395C7.47343 20.6097 8.41107 20.7548 9.32361 20.9611L9.23889 21.0357C9.08878 21.033 8.5421 20.9411 8.38039 20.9141C7.4474 20.7583 6.50414 20.5669 5.57666 20.3777L5.64358 20.3066Z" fill="#737272"/>
<path d="M27.9797 24.2656C28.2654 24.2731 29.0945 24.4345 29.4112 24.4904C29.699 24.5412 30.5197 24.6711 30.7659 24.7507C30.9586 24.7828 31.526 24.8728 31.6967 24.9249L31.6802 25.0113C31.3795 24.9736 31.0337 24.8993 30.7223 24.8536C29.881 24.7373 28.6431 24.5147 27.8188 24.333C27.8841 24.3196 27.9212 24.2958 27.9797 24.2656Z" fill="#777576"/>
<path d="M30.7224 24.8542C30.604 24.742 30.3899 24.7893 30.2485 24.7056C30.2726 24.6992 30.6443 24.7527 30.7373 24.7519L30.7659 24.7513C30.9586 24.7834 31.526 24.8735 31.6968 24.9256L31.6802 25.0119C31.3796 24.9742 31.0337 24.8999 30.7224 24.8542Z" fill="#5E5D5E"/>
<path d="M22.1654 23.2314C22.8033 23.2822 23.7694 23.5137 24.4231 23.6152C24.7059 23.6591 25.7279 23.8333 25.9719 23.9052L26.0299 24.0041C25.3524 23.8993 24.6757 23.7884 24.0001 23.6708C23.4303 23.5746 22.6993 23.4591 22.1392 23.3178L22.1819 23.2918L22.1654 23.2314Z" fill="#737272"/>
<path d="M16.5786 22.2451C17.4937 22.3552 18.4568 22.5669 19.3652 22.7369C19.5541 22.7721 20.342 22.8881 20.4943 22.9405L20.4238 22.9998C19.4363 22.8839 18.3803 22.6554 17.393 22.503C17.1675 22.468 16.8118 22.3967 16.5971 22.3253C16.5967 22.2836 16.5926 22.2865 16.5786 22.2451Z" fill="#686668"/>
<path d="M11.4834 21.3271C11.7637 21.367 13.6329 21.6716 13.7933 21.7451C14.0009 21.7671 14.3682 21.8344 14.5776 21.8828L14.5406 21.9704C14.2939 21.9376 14.0478 21.9007 13.8023 21.8595C13.2813 21.7903 12.0729 21.5867 11.5859 21.4552L11.7133 21.4487L11.7233 21.4292C11.6242 21.3996 11.5669 21.3878 11.4834 21.3271Z" fill="#888687"/>
<path d="M13.8022 21.8597C13.6068 21.7113 13.4326 21.8196 13.2455 21.7143L13.2412 21.6953C13.4111 21.7196 13.5811 21.7431 13.7512 21.7656L13.7931 21.7453C14.0008 21.7672 14.368 21.8346 14.5774 21.8829L14.5404 21.9706C14.2937 21.9377 14.0476 21.9008 13.8022 21.8597Z" fill="#737272"/>
<path d="M3.53106 20.0115C3.36782 20.0123 2.23679 19.8375 2.125 19.7474L2.12765 19.7001L2.17369 19.6729C2.45674 19.6977 3.25816 19.8423 3.53117 19.9249C3.52358 19.9794 3.51404 19.9741 3.53106 20.0115Z" fill="#737272"/>
<path d="M3.5311 19.9248L5.64365 20.3064L5.57673 20.3775C5.38594 20.3265 5.04812 20.2805 4.83972 20.2442L3.53099 20.0114C3.51397 19.974 3.52351 19.9793 3.5311 19.9248Z" fill="#323131"/>
<path d="M14.5775 21.8838C15.2248 22.0046 15.933 22.1492 16.579 22.2462C16.5931 22.2876 16.5971 22.2847 16.5975 22.3264C15.9774 22.1949 15.172 22.0682 14.5405 21.9714L14.5775 21.8838Z" fill="#323131"/>
<path d="M25.9717 23.9053C26.6406 24.0376 27.3178 24.1319 27.9796 24.2663C27.921 24.2965 27.8839 24.3203 27.8187 24.3337C27.4753 24.2377 26.3966 24.0547 26.0297 24.0042L25.9717 23.9053Z" fill="#323131"/>
<path d="M20.4944 22.9404C21.0388 23.0348 21.623 23.1518 22.1653 23.2312L22.1818 23.2916L22.1391 23.3175C21.577 23.1991 20.9907 23.1016 20.4238 22.9998L20.4944 22.9404Z" fill="#323131"/>
<path d="M9.32398 20.9609C9.79405 21.0505 10.4569 21.1878 10.9247 21.2488L10.9733 21.3434C10.5168 21.2295 9.71463 21.1098 9.23926 21.0355L9.32398 20.9609Z" fill="#323131"/>
<path d="M31.6967 24.9258C31.9466 24.9758 32.7126 25.0773 32.8665 25.1874C32.6158 25.2072 31.9493 25.0485 31.6802 25.0121L31.6967 24.9258Z" fill="#323131"/>
<path d="M10.9243 21.248L11.4829 21.3266C11.5663 21.3873 11.6236 21.399 11.7228 21.4287L11.7128 21.4482L11.5854 21.4546C11.5203 21.4528 11.0621 21.3595 10.9729 21.3427L10.9243 21.248Z" fill="#737272"/>
<path d="M34.8677 6.8902C35.0526 6.81895 35.4556 6.72792 35.6494 6.77258C35.8806 6.82584 35.8167 7.30888 35.9209 7.44874C35.9677 8.24965 35.9247 9.34409 35.9268 10.1733L35.9225 16.3267L35.9215 24.4414C35.9223 25.5762 35.9682 26.893 35.9386 28.0034C35.8913 28.7218 35.6005 29.0209 34.9508 29.3068C35.1494 28.7809 35.0315 28.6178 35.0858 28.1357C35.0569 27.7011 35.0759 27.0071 35.0791 26.5576L35.085 24.1058L35.0847 16.385L35.0855 10.2473C35.086 9.68008 35.0828 9.11289 35.0759 8.54572C35.0735 8.28426 35.0574 7.85999 35.078 7.60979C35.1312 7.39251 34.9599 7.08262 34.8677 6.8902Z" fill="#CFCECE"/>
<path d="M35.0955 28.542C35.3067 28.3915 35.7188 28.1026 35.9385 28.0029C35.8912 28.7213 35.6004 29.0204 34.9507 29.3063C35.1493 28.7804 35.0314 28.6174 35.0856 28.1352C35.0985 28.2504 35.0945 28.422 35.0955 28.542Z" fill="#A6A4A4"/>
<path d="M1.44775 0.384823C1.63406 0.271186 1.94659 0.134164 2.16483 0.158003C2.99212 0.248336 3.83269 0.450301 4.6537 0.577462C7.87269 1.10518 11.0882 1.65394 14.3 2.2237L28.9057 4.71902L32.6294 5.3433C33.1971 5.43973 33.7642 5.53287 34.3297 5.64249C34.9102 5.75509 35.3509 6.08924 35.6593 6.58877C35.8327 6.86949 35.9231 7.11441 35.9212 7.44888C35.817 7.30902 35.8808 6.82598 35.6497 6.77272C35.4559 6.72806 35.0529 6.81909 34.8679 6.89034C34.9601 7.08276 35.1315 7.39265 35.0783 7.60992L35.0494 7.49402C34.8685 6.76075 34.2452 6.08349 33.4894 5.92504C33.0188 5.82642 32.5289 5.76041 32.0532 5.67232C30.583 5.40557 29.1104 5.14981 27.6363 4.90506L15.6538 2.81944L5.99803 1.15388L2.97886 0.617684C2.55206 0.544055 1.85577 0.402836 1.44775 0.384823Z" fill="white"/>
<path d="M11.5323 23.9072L12.0083 23.3096L11.555 22.5621L11.822 22.614L12.1443 23.159L12.1569 23.1615L12.4793 22.7418L12.7311 22.7907L12.2778 23.3543L12.7563 24.1452L12.4919 24.0938L12.1443 23.5054L12.1317 23.5029L11.7842 23.9562L11.5323 23.9072ZM12.8236 24.1582L13.2996 23.5606L12.8462 22.8131L13.1132 22.865L13.4356 23.41L13.4482 23.4125L13.7705 22.9928L14.0224 23.0417L13.569 23.6053L14.0476 24.3962L13.7831 24.3448L13.4356 23.7564L13.423 23.7539L13.0754 24.2072L12.8236 24.1582ZM14.1148 24.4092L14.5908 23.8116L14.1375 23.0641L14.4044 23.116L14.7268 23.661L14.7394 23.6634L15.0618 23.2438L15.3136 23.2927L14.8603 23.8563L15.3388 24.6471L15.0743 24.5957L14.7268 24.0074L14.7142 24.0049L14.3666 24.4582L14.1148 24.4092ZM15.406 24.6602L15.882 24.0626L15.4287 23.3151L15.6957 23.367L16.018 23.912L16.0306 23.9144L16.353 23.4948L16.6048 23.5437L16.1515 24.1073L16.63 24.8981L16.3656 24.8467L16.018 24.2583L16.0054 24.2559L15.6579 24.7092L15.406 24.6602ZM16.6973 24.9112L17.1733 24.3136L16.7199 23.5661L16.9869 23.618L17.3093 24.163L17.3219 24.1654L17.6442 23.7457L17.8961 23.7947L17.4427 24.3583L17.9213 25.1491L17.6568 25.0977L17.3093 24.5093L17.2967 24.5069L16.9491 24.9602L16.6973 24.9112ZM17.9885 25.1622L18.4645 24.5646L18.0112 23.8171L18.2781 23.869L18.6005 24.414L18.6131 24.4164L18.9355 23.9967L19.1873 24.0457L18.734 24.6092L19.2125 25.4001L18.948 25.3487L18.6005 24.7603L18.5879 24.7579L18.2403 25.2111L17.9885 25.1622ZM19.2797 25.4132L19.7557 24.8155L19.3024 24.0681L19.5694 24.1199L19.8917 24.665L19.9043 24.6674L20.2267 24.2477L20.4785 24.2967L20.0252 24.8602L20.5037 25.6511L20.2393 25.5997L19.8917 25.0113L19.8791 25.0089L19.5316 25.4621L19.2797 25.4132ZM20.571 25.6642L21.047 25.0665L20.5936 24.319L20.8606 24.3709L21.183 24.9159L21.1955 24.9184L21.5179 24.4987L21.7698 24.5477L21.3164 25.1112L21.795 25.9021L21.5305 25.8507L21.183 25.2623L21.1704 25.2599L20.8228 25.7131L20.571 25.6642ZM21.8622 25.9152L22.3382 25.3175L21.8849 24.57L22.1518 24.6219L22.4742 25.1669L22.4868 25.1694L22.8092 24.7497L23.061 24.7987L22.6077 25.3622L23.0862 26.1531L22.8217 26.1017L22.4742 25.5133L22.4616 25.5108L22.114 25.9641L21.8622 25.9152ZM23.1534 26.1662L23.6294 25.5685L23.1761 24.821L23.443 24.8729L23.7654 25.4179L23.778 25.4204L24.1004 25.0007L24.3522 25.0496L23.8989 25.6132L24.3774 26.4041L24.113 26.3527L23.7654 25.7643L23.7528 25.7618L23.4053 26.2151L23.1534 26.1662Z" fill="black"/>
<defs>
<linearGradient id="paint0_linear_17_3760" x1="1.73559" y1="25.9721" x2="34.7653" y2="20.9514" gradientUnits="userSpaceOnUse">
<stop stop-color="#E1C8F0"/>
<stop offset="1" stop-color="#99D1E7"/>
</linearGradient>
</defs>
</svg>
