<svg width="60" height="60" viewBox="0 0 60 60" fill="none" xmlns="http://www.w3.org/2000/svg">
<rect width="60" height="60" rx="30" fill="#002D84"/>
<g clip-path="url(#clip0_5997_6853)">
<path d="M3 3H57.8125V40.7714V57.8125H3V47.3566V3Z" fill="#FEDB9A"/>
<path d="M3 3H57.8125V40.7714L51.4256 41.596C50.0012 41.7772 48.5399 41.9498 47.1206 42.1524C46.9078 40.8993 46.7306 39.5191 46.5468 38.2529L45.4872 31.002L44.1233 21.7322C43.9434 20.4807 43.7245 19.1845 43.5722 17.9334C43.429 17.7568 42.8204 17.2119 42.6248 17.0299L40.5843 15.147C39.6382 14.2752 38.6859 13.4101 37.7278 12.5517C37.4971 12.3445 36.7059 11.6072 36.4934 11.4716C34.605 11.6339 32.6841 11.7595 30.7919 11.9005L21.3155 12.6159L16.9033 12.955C16.2033 13.0086 15.5013 13.0504 14.8029 13.1167C14.6171 13.1343 14.5249 13.2654 14.4269 13.4091C14.2263 13.6346 13.9741 13.8788 13.86 14.1507C13.8676 14.5121 13.9488 15.0157 13.9999 15.381L14.2599 17.2242L15.0796 23.1104L17.1453 38.2133C17.4685 40.5899 17.8216 43.0088 18.1158 45.3852C17.9486 45.5174 16.6649 45.6341 16.391 45.6694L12.9408 46.1065C12.5457 46.1573 11.6029 46.2186 11.321 46.4049L11.1886 46.3225C10.0376 46.5104 8.71078 46.6375 7.53825 46.7895L4.63434 47.1548C4.11997 47.2193 3.5084 47.3114 3 47.3566V3Z" fill="#002776"/>
<path d="M11.1886 46.3225C11.2574 45.4637 11.2829 44.4914 11.3318 43.6191L11.7044 36.7373L12.8306 16.3535C12.8418 16.1547 12.8654 15.8995 12.9115 15.7105C12.9949 15.3689 13.6173 14.3679 13.8601 14.1508C13.8676 14.5121 13.9488 15.0158 14 15.3811L14.2599 17.2243L15.0796 23.1104L17.1453 38.2133C17.4685 40.59 17.8216 43.0089 18.1158 45.3853C17.9486 45.5175 16.6649 45.6342 16.391 45.6695L12.9408 46.1066C12.5457 46.1574 11.6029 46.2187 11.321 46.405L11.1886 46.3225Z" fill="#011C55"/>
<path d="M57.8125 40.7715V57.8126H3V47.3567C3.5084 47.3115 4.11997 47.2194 4.63434 47.1549L7.53825 46.7896C8.71078 46.6376 10.0376 46.5105 11.1886 46.3226L11.321 46.405C11.6029 46.2187 12.5457 46.1575 12.9408 46.1066L16.391 45.6695C16.6649 45.6342 17.9486 45.5175 18.1158 45.3853L18.628 49.0905C18.7117 49.7088 18.7787 50.3297 18.8836 50.9444C18.974 51.4736 19.5124 51.2742 19.8785 51.2126C22.3881 50.9474 24.9658 50.6091 27.4735 50.3075L38.668 48.9733L44.2488 48.3117C45.2506 48.1942 46.3749 48.0382 47.3681 47.9565C47.6336 47.9188 47.9066 47.8066 47.8836 47.4962C47.8397 46.9018 47.7297 46.2846 47.6406 45.6952C47.4565 44.516 47.2833 43.3349 47.1206 42.1525C48.5399 41.9499 50.0012 41.7773 51.4256 41.5961L57.8125 40.7715Z" fill="#EF4F36"/>
<path d="M18.1157 45.3851L18.628 49.0903C18.7117 49.7086 18.7787 50.3295 18.8836 50.9443C18.974 51.4734 19.5124 51.274 19.8784 51.2124C22.3881 50.9472 24.9658 50.6089 27.4735 50.3073L38.668 48.9731L44.2488 48.3115C45.2506 48.194 46.3749 48.038 47.3681 47.9563C47.4955 48.1713 47.5539 48.3846 47.2528 48.445C46.6452 48.5668 45.9253 48.6246 45.3116 48.694L41.4391 49.1513L25.0692 51.1032L21.4945 51.5347C20.8668 51.6093 20.2274 51.691 19.5981 51.7466C19.4577 51.7464 19.2823 51.7731 19.1558 51.703C18.7609 51.4833 18.3885 51.2116 18.0147 50.9579L16.088 49.6443L12.8686 47.4513C12.3619 47.1071 11.8169 46.7576 11.321 46.4048C11.6029 46.2186 12.5457 46.1573 12.9408 46.1064L16.391 45.6694C16.6649 45.634 17.9486 45.5173 18.1157 45.3851Z" fill="#002776"/>
<path d="M14.4268 13.4092C14.456 13.878 14.5713 14.5579 14.6379 15.0349L15.0643 18.068L16.3623 27.4634L18.5101 43.2289L19.231 48.5212C19.3315 49.2526 19.4256 49.9846 19.5264 50.7161C19.5652 50.9979 19.6407 51.0565 19.8784 51.2126C19.5124 51.2741 18.974 51.4735 18.8836 50.9444C18.7787 50.3296 18.7117 49.7087 18.6279 49.0905L18.1157 45.3853C17.8216 43.0089 17.4685 40.59 17.1453 38.2133L15.0796 23.1104L14.2599 17.2243L13.9999 15.3811C13.9488 15.0158 13.8676 14.5121 13.86 14.1508C13.9741 13.8788 14.2262 13.6347 14.4268 13.4092Z" fill="#F5BC5B"/>
<path d="M36.4934 11.4717C36.7059 11.6074 37.4971 12.3446 37.7278 12.5519C38.6859 13.4102 39.6382 14.2753 40.5843 15.1471L42.6248 17.03C42.8204 17.2121 43.429 17.7569 43.5722 17.9335L43.5032 17.9502C43.3517 17.9269 42.7166 17.9844 42.5185 17.999L39.791 18.2003C39.3465 18.2332 38.8016 18.3021 38.3757 18.2789C37.6033 18.2367 37.4767 17.4095 37.3954 16.8127C37.3563 16.5256 37.2953 16.2348 37.2471 15.9541L36.6538 12.5007C36.6249 12.2964 36.5729 11.8712 36.5103 11.6924L36.4934 11.4717Z" fill="#F5BC5B"/>
<path d="M36.5799 12.569L36.6537 12.5005L37.2471 15.9539C37.2953 16.2346 37.3563 16.5254 37.3954 16.8125C37.4767 17.4094 37.6033 18.2365 38.3757 18.2787C38.8015 18.3019 39.3464 18.233 39.791 18.2001L42.5185 17.9988C42.7166 17.9842 43.3517 17.9268 43.5032 17.95L39.9021 18.8755C39.325 19.0237 38.7266 19.1989 38.1394 19.2924C37.8774 19.3271 37.6167 19.2199 37.4211 19.0536C37.1823 18.8515 37.0889 18.5964 37.0597 18.2939C37.0089 17.7679 36.9666 17.2419 36.9224 16.7156L36.5799 12.569Z" fill="#011C55"/>
<path d="M36.5103 11.6924C36.5729 11.8712 36.6248 12.2964 36.6537 12.5007L36.5799 12.5692C36.5443 12.321 36.5079 11.9357 36.5103 11.6924Z" fill="#173638"/>
<path d="M40.0905 26.2155C40.2693 26.1943 40.4732 26.2266 40.4871 26.4392C40.5104 26.7988 39.8938 26.7531 39.6789 26.7734L38.3064 26.9053L33.9533 27.3206L20.8933 28.5755C20.7281 28.5976 20.5636 28.5969 20.5009 28.4029C20.4426 28.2225 20.6304 28.0638 20.7961 28.0534C21.3827 28.0169 21.968 27.9547 22.5532 27.8976L27.1863 27.4523L40.0905 26.2155Z" fill="#011C55"/>
<path d="M41.8668 37.4571C42.2945 37.4164 42.2083 37.9694 41.8061 37.99C41.3615 38.0124 40.9057 38.0665 40.462 38.1133L36.0987 38.5681L22.3565 40.0326C21.9823 40.0797 21.9307 39.5367 22.3959 39.4992C23.1599 39.4376 23.9259 39.3496 24.6885 39.2682L30.3466 38.665L37.6561 37.8915C39.0438 37.7453 40.481 37.5759 41.8668 37.4571Z" fill="#011C55"/>
<path d="M41.3631 34.6192C41.8987 34.5338 41.8336 35.0964 41.4303 35.129C40.8544 35.1758 40.2819 35.2395 39.707 35.2998L35.4778 35.7376L22.0623 37.147C21.5139 37.2003 21.5133 36.7153 21.9833 36.6364C22.1898 36.6018 22.431 36.5879 22.6422 36.567L23.9519 36.4354L28.1941 35.99L41.3631 34.6192Z" fill="#011C55"/>
<path d="M41.016 31.8095C41.1538 31.7865 41.297 31.8413 41.3307 31.9918C41.3728 32.1788 41.1619 32.3116 41.0005 32.3242C40.5139 32.3616 40.0281 32.4152 39.5424 32.4655L35.978 32.8305L26.4255 33.8122C24.8489 33.9725 23.1938 34.1082 21.6273 34.2934C21.4828 34.2948 21.3085 34.2712 21.2646 34.0975C21.2185 33.9153 21.4694 33.7847 21.6219 33.7694C22.2342 33.7081 22.8481 33.6541 23.461 33.593L27.815 33.1605L41.016 31.8095Z" fill="#011C55"/>
<path d="M40.5211 29.0521C40.6362 29.0366 40.7304 29.0258 40.831 29.1002C40.8838 29.1391 40.9162 29.1998 40.9188 29.2653C40.9255 29.4346 40.735 29.5505 40.5859 29.5615C39.9952 29.6053 39.4053 29.6689 38.816 29.7277L34.5761 30.1509L21.2863 31.4399C20.7308 31.5167 20.7962 30.9715 21.2177 30.9306C21.4062 30.9121 21.6073 30.9033 21.7987 30.8859L23.2242 30.7523L27.7875 30.3118L40.5211 29.0521Z" fill="#011C55"/>
<path d="M40.6132 40.4533C40.7912 40.4209 41.0187 40.4335 41.0556 40.6575C41.0669 40.7255 41.0463 40.7948 41 40.8457C40.9526 40.8989 40.8627 40.9466 40.7936 40.9533C40.14 41.0154 39.4792 41.09 38.827 41.1599L34.9077 41.5948L22.8862 42.9135C22.3131 43.0061 22.3708 42.4379 22.7481 42.4052C23.3306 42.3549 23.9103 42.2883 24.4913 42.2248L28.5082 41.7827L40.6132 40.4533Z" fill="#011C55"/>
<path d="M29.3265 21.6401C29.4934 21.6198 29.64 21.7165 29.6462 21.8949C29.6532 22.0947 29.4999 22.136 29.3341 22.1519C28.3457 22.2464 27.3551 22.3238 26.3658 22.4118L20.0284 22.9612C19.8601 22.9712 19.7153 22.8946 19.6946 22.7076C19.672 22.5033 19.8705 22.4611 20.0324 22.4437C20.4828 22.3955 20.9388 22.3604 21.3921 22.3218L23.6433 22.1247C25.5368 21.9522 27.4312 21.7907 29.3265 21.6401Z" fill="#011C55"/>
<path d="M28.9137 18.9092C29.2036 18.8735 29.4043 19.0942 29.1929 19.3575C29.0083 19.4631 20.6906 20.1196 19.6838 20.1975C19.4187 20.2297 19.2292 20.0208 19.4009 19.7824C19.4501 19.7141 19.5903 19.6999 19.6771 19.6918C20.6166 19.6046 21.5577 19.5316 22.4979 19.4495L28.9137 18.9092Z" fill="#011C55"/>
<path d="M31.5849 44.4411C31.6508 44.4309 31.8467 44.4076 31.8973 44.4317C32.246 44.596 32.1839 44.8837 31.8033 44.9415C31.4835 44.99 31.1583 45.0208 30.8361 45.0561L28.9538 45.2627L23.4413 45.8802C23.2002 45.9155 22.9507 45.9398 22.8618 45.6438C22.89 45.4543 23.0415 45.4032 23.2168 45.3781C23.5248 45.3339 23.8374 45.3053 24.147 45.2723L25.8401 45.0869L31.5849 44.4411Z" fill="#011C55"/>
<path d="M26.9847 24.4245C27.0732 24.4148 27.2848 24.3856 27.3626 24.419C27.6972 24.5628 27.68 24.8576 27.2969 24.9142C27.0051 24.9574 26.7229 24.9752 26.4326 24.9997L24.8981 25.1326C23.5194 25.2569 22.0602 25.4176 20.6845 25.5125C20.5597 25.5303 20.2881 25.5716 20.2004 25.4929C19.6277 24.9785 20.8164 24.9814 20.9815 24.9671L22.4292 24.838L26.9847 24.4245Z" fill="#011C55"/>
</g>
<defs>
<clipPath id="clip0_5997_6853">
<rect width="54.8125" height="54.8125" fill="white" transform="translate(3 3)"/>
</clipPath>
</defs>
</svg>
